<?xml version="1.0" encoding="UTF-8"?>
<svg id="Capa_1" data-name="Capa 1" xmlns="http://www.w3.org/2000/svg" viewBox="0 0 337.5 267.31">
  <defs>
    <style>
      .cls-1 {
        fill: #3d2725;
      }

      .cls-2 {
        fill: #fcfdfc;
      }

      .cls-3 {
        fill: #b64c47;
      }

      .cls-4 {
        fill: #3f4254;
      }

      .cls-5 {
        fill: #93745c;
      }

      .cls-6 {
        fill: #5c4e42;
      }

      .cls-7 {
        fill: #e3dad0;
      }

      .cls-8 {
        fill: #a84644;
      }

      .cls-9 {
        fill: #8e8a98;
      }

      .cls-10 {
        fill: #944c46;
      }

      .cls-11 {
        fill: #b0a298;
      }

      .cls-12 {
        fill: #755542;
      }

      .cls-13 {
        fill: #e2bc7d;
      }

      .cls-14 {
        fill: #643332;
      }

      .cls-15 {
        fill: #55443b;
      }
    </style>
  </defs>
  <path class="cls-2" d="M129.25,65.29c2.08,1.83.26,10.86,2.04,11.98,3.07,1.91,2.97-2.51,3.96-2.98,3.52-1.68,16.15-4.73,20-5,1.31-.09,2.68,0,4,0,.13,0,1.13,1.04,2.42,1.04,18.34.03,27.13-1.4,39.58,13.96,2.06,2.55,5.08,7.93,6.53,10.98.79,1.64,1.65,3.09,1.47,5.02-.72-1.25-1.5-4.72-2.99-3-.93,1.07.72,4.7.99,6-1.27,2.21.14,11.51.96,13.36.61,1.38,4.43-.26,3.02,2.63-.1.21-4.96-.25,0,3.01-.7,3.84,1.31,9.48,3,13,.09,4.53,1.91,4.17,1.91,4.45,0,1.66-2.58,3.03,1.09,4.55-.1,4.42,1.2,5.67,2,9,1.29,5.39,4.27,12.69,3,18-1.01,4.21-6.12,5.96-10,7-.29.08-.66-.06-1,0-.16-4.38-1.38-8.91-2-13-.83-5.49-1.07-11.72-2-17-.63-3.56-1.77-8.32-2.71-11.84-.48-1.78.29-2.59-2.28-2.16-.35,13.05,2.16,26.11,2.99,38.99-1.26-1.61-3.76-2.17-5-3-.09-.06.46-1.74-.65-2.02-3.41-.88-6.77.69-9.35,1.02-10.42,1.36-19.48,5.92-29.6,8.8-1.66.47-3.1,1.06-4.4,2.2-.06-.27-.92-.66-1-1-1.7-6.83-3.14-15.51-6.8-21.7-.81-1.37-1.21-2.69-3.19-2.3-.02,8.32,0,16.68,0,24.99-17.95-.11-29.09-10.51-44.94-20.72-4.97-3.2-3.09-4.17-10.06-4.28.98-3.93-6.59.32-10-1,0-.13-.8-.37-.78-.71.21-2.97,5.65-8.24,7.44-11.1,2.37-3.77,4.22-8.99,6.34-12.19.61-.92,3.72-4.35,5-6,1.51-1.93,2.04-3.24,4-5,.16-.14,1.32.47,2.08-.61.46-.65,3.89-10.96,3.75-11.65-.13-.6-3.92-6.69-4.32-6.7-4.51,1.2-1.89,6.13-2.52,9.95-.32.43-2.16-1.8-2.99-2-.41-1.51-1.13-2.72-2-4-.57-.84-.92-1.67-2-2-1.24-5.77-1.99-6.08-5-11,1.67-5.1,7.45,1.86,7.76,3.63.23,1.29-1.62,3.49-.26,4.38,5.13.14,4.23-7.33,8.49-8.01,1.4,5.71,2.59,5.58,7,5-.08.65.1,1.37,0,2-1.07.2-2.15-.63-3.07.6s-1.28,3.58.58,4.39c2.18.94,2.32-3.9,2.48-4.99.6-.11,1.35.08,1.99,0,.31-2.15,0-2.26-1.99-1.99.21-1.7-.16-3.42,1-5v-1h1c-.03,1.03,1.32,3.09,0,4.99,3.45.84,2.36-3.72,3-5.99.09-.33.87-.67,1-1l.5.98c.79-.46,1.09-1.24,1.5-1.98.96-1.72.81-1.89,0-4,3.57-.74,9.06-.67,9.06-6.45,0-4.48-.81-6.03-.06-11.55l.02.02ZM158.24,71.3c-1.09-1.09-3.08.9-1.99,1.99s3.08-.9,1.99-1.99Z"/>
  <path class="cls-1" d="M270.25,76.29c3.03-3.9,5.11-9.08,9.99-10-.05,4.23-.14,9.19,2.01,13,.18,1.95-.87,9.61,1.53,10.01,4.45-.64,5.68-4.86,9.47-6.01.12.32,2.99,1.72,2,4-.51.75.36,7.26,0,9,4.15.75,6.89-2.99,9-6,.37-.52,1.67-.37,2.01-2.5.4-2.56-.33-5.09-1.01-7.5,4.13,2.48,2.03,4.53,2.43,5.06.57.76,4.74,1.36,6.04,5,.59,1.65-.76,3.38.53,4.94-1.81-.41-3.78-4.87-7.06-2.56-1.93,1.36-.38,4.77.06,6.56-.36.47.27,4.32,0,5.49,2.86,2.15,3.11-1.25,4.35-2.2,2.27-1.74,3.1.83,3.65-5.3.06-.66-.04-1.34,0-2,.11,0,1.36-1.68,1.99-1,.12.13.16,2.31.95,3.54,3.7,5.78,9.32,15.88,16.06,17.46v106c0-.18-1.07-1.52-1.07-3.38-.02-10.54.12-21.09.07-31.62,0-2.19.6-22.01-.5-22.01l-.5,22.01c-1.84-7.77-.99-16.9-1-25v-33.5l1-.5v29c1.76.22.95-2.26,1-3.49.35-8.51.24-17.98,0-26.51-.07-2.33.06-4.68,0-7-6.63.69-17.33-1.69-15.01,8.01h12c-1.43,8.36.04,24.6,0,34-.07,15.65.05,31.35,0,47-.02-.3-1.02-1.54-1.07-3.38-.54-16.94,3.15-52.91-.13-66.92-.4-1.73-1.9-2.87-2.56-4.48-.51-1.25.11-3.28-.36-4.1s-7.59-.38-7.87-.1c-.19.18.05,3.86-.28,5.23-.46,1.95-1.36,3.39-1.74,4.76-.59-3.48.77-6.72,1-10,.16-2.31-.11-4.69,0-7.01-5.98.9-18.17-3.3-16.01,6.01,4.39,1.07,9.63-1.43,13.54-1.11,1.67.14,1.68.59,1.46,2.11l-1,2.5-.98-3.49-2.01,8.99c.87-4.03.84-8.59-4-7,.56,4.72-1.26,10.7,1,15-.01.13,1.09.69,1.08,1.4,0,.46-6.85,2.35,2.92,2.6-.47.72-1.88.84-2,1-4.48,2.67-5.37-.94-7-4,.04.1,1.93,1.09,1.99,1v-17.99c-1.23-1.62-1.81.02-1.99,1.48-.24,1.86-.35,14.59,0,15.52-3.14-5.9-2.06-10.31-3.78-16.77-.39-1.47.04-3.44-.22-4.23-.58-1.71-2.23-.87-4-.99,1.57,2.75.85,5.61,1,8.54.1,1.92-1.04,4.01,2,3.45.03.5-.54,1.47-.53,2.48.01,1.28,3.2,2.77-.47,5.02,3.55.21.46,2.9,1,3.49,1.99,2.14,1.66-2.54,2.99-1.99.81,3.52,2.05,8.02,6.01,8.99l-.07,42.39c.42,1.46,3.37-.85,4.12,4.07.67,4.41.22,5.1-4.05,4.54v14l10.78-1.63,11.22-3.37,2-17v19l-26.99,7,1.99-11.99-3-.02c-.38,2.07.52,12.39-.05,12.96-.31.31-6.64,1.15-8.56,1.9s-6.53,5.96-7.88,1.14c-1.81,2.95-6.58,2.18-8.59,3.49-1.16.75,1.09,5.11-2.92,4.5v-101.96c1.89.24,3.8-.87,5.54-.89.81,0,1.33.86,1.46.86-1.03,2.85-2.93,1.93-4.99,1,.8,23.3-1.09,47.32-.05,70.54.23,5.24,3.03,15.31,2.02,19.79-.09.39-3.52,1.52-1.97,3.67.7.97,20.36-5.91,23.05-6.61l-.12-66.83c.13-2.42-4.78-9.69-4.91-10.26-.4-1.78-.2-10.41-1.08-11.25-.39-.38-6.33.05-7.95-.05,1.32-3.71,4.01-1.12,5.57-1.11.54,0,.04-2.91,2.42-.89v-7.01c-3.37-1.18-7.18,2.78-9.44,2.89-1.86.09-10.43-2.02-11.56-.89-.46,16.13.64,32.42,0,48.55-.08,1.93,1.03,4.01-2,3.45.25-8.28,1.02-16.56,1-25-.02-6.11.48-13.04,0-19-.17-2.09-1.91-5.2-1.01-8-6.95.83-14.69-.12-21.99,0-.04-1.36.03-2.66,0-4,1.94.92,4.03-.87,5-1,3.67-.49,8.18-.61,12-1,2.33-.24,3.38-.72,5-1,.44-.08,1.93-.07,2,0,.2.2-.37,1.89.42,1.9,4.56.06,10.12.12,14.58.1,1.64,0,6.17-2.93,8-3,4.84-.18,10.68,5.01,10-5-.2-2.93-2.21-9.62-5.49-10.02l-4.51,9.02c-.38.21-.67.84-1,1-1.15.56-5.16,2.57-5.99,2-1-2.83-.81-5.97-1.69-8.81-4.46-14.4-6.78-3.13-10.32,3.82-.91,1.78-3.47,4.61-4,6h-2c-.39-5.64-3.38-9.48-5-14-.86-2.41-2.61-6.84-3-9-.04-.2,1.22-1.21.57-2.04-.77-.99-2.27-.71-2.57-.96.47-1.15.48-3.03,1-4s3.77-3.18,4.05-3.73c1.45-2.93-.43-1.9,2.95-6.27h.03ZM313.25,113.28c5.28.24,7.26-5.35,1.01-4.99l-1.01,4.99ZM306.25,155.29h-2v48.5c0,.88,1.86,3.63,1.01,5.5h.99v-54ZM309.24,201.28c.72-1.4-.63-2.67-.98-1.99-.72,1.4.63,2.67.98,1.99Z"/>
  <path class="cls-5" d="M241.25,2.29c2.12-.78,2.21-1.93,3.44-2.07,2.52-.3,7.68-.73,6.56,2.07-.32.06-.67-.05-1,0-.2.03-.88-.7-1.5-.6-2.63.43-9.66,8.69-11.33,11.28-2.5,3.88-11.31,23.85-10.18,27.32.33,1.7,2.82.73,4,1,1.53.35,4.26,2.6,6,0,11.96,0,23.64.65,35.5,0,1.35-.18-.49-.95-.5-1.01-.05-.45.39-1.19,1-1,.02.33,1.14,3.15,1.49,3,1.81-.94,1.07-2.97,1.51-4,1.1-2.6,4.08-5.69,1-9,.61-1.98.47-5.5,1-7,2.08-5.95,8.09-15.16,13-19,.18-.14,3.79-1.94,4-2-.29,3.24-.24,3.29,3,3-6.5,5.4-8.71,14.06-11.71,21.76-.52,1.32-2.23,1.09-2.26,1.85-.33,6.93-3.02,7.6-3.08,8.06-.25,1.88,1.09,3.51,1.06,4.75-.02.53-1.49.44-1.91,1.37-1.01,2.2.35,3.58-3.1,5.21-4.15,1.98-28.26,1.22-34.57,1.04-1.94-.06-3.53-.99-4.43-1.04-1.95-.11-5.22-.29-7,0-.35.06-.93-.11-1,0-1.13.05-2.03-.68-3-1-4.99-1.65-5.16,0-9.46.04-9.68.08-19.37-.18-29.06-.06-1.69.02-4.45-.64-5.49,1.02-6.4-.04-13.1,0-19,0h-1c-1.04-1.66-3.8-1-5.49-1.02-6.2-.07-13.69-.76-19.51,1.02-6.65-.13-13.63-.87-20-1-4.45-.09-8.73.07-13,0-7.14-.12-14.36-.11-21.51-.02-1.69.02-4.45-.64-5.49,1.02-1.55-.14-3.29-1.13-5-1-1.03-5.05-.09-3.35,1.56-6.28,2.42-4.28,1.09-2.43,1.52-6.09.19-1.6,2.83-7.46,3.7-9.32,2.4-5.17,10.26-17.43,15.29-19.73,1.43-.65,4.07-1.04,5.93-1.57l3.51,1.01c-7.55,4.22-11.94,10.42-16.5,17.51l3.99,1.48c-.05.33.03.67,0,1v1c-.34-.22-1.46.19-2,0s-1.94-1.78-2.99-1c-1.28.96-3.98,10.61-4.01,13,0,.33-.04.68,0,1-4.01-.5-1.82,4.23.5,4,6.23-1.04,36.27,1.8,39.5-1,2.03-1.76,1.41-4.03,2-6,.16-.54-.15-1.42,0-2,.56-2.16,2.82-5.35,4-8,3,.32,3.53-6.08,5-9,.91-1.8,3.68-5.59,5-7,1.05-1.11,2.9-3.19,4-4,.09-.07,1.2-.51,2-1,.7-.43,6.05-3.04,6.43-3.09,1.7-.21,5.37-.43,6.57,1.09-.7.14-5.04,1.67-5.4,1.92-1.02.71-.45,1.89-.6,2.08-1.12,1.39-3.33.98-5.12,2.41-1.48,1.18-1.48,3.14-1.88,3.59-.85.95-2.34,1.44-3.44,3.05-2.21,3.28-12.12,23.49-10.55,25.89l80.99.06c4.57-.15,6.41,1.71,8-3,1.21-3.6-.34-8.69,0-8.99.3-.26,2.33.67,3.05-.65.86-1.58,1.5-6.28,1.95-8.36l11-17c2.6-.15,2.6-.12,5-1h.02Z"/>
  <path class="cls-5" d="M276.25,38.29h-3c.2-1.4,1.83-2.47,2-3l1,3Z"/>
  <path class="cls-4" d="M151.25,206.29l5.51.98c.94-.7-.97-2.16-.47-2.85.54-.75,14.75-7.22,16.68-7.91,4.55-1.63,12.8-3.83,17.35-2.79,6.25,1.43,6.4,3.82,5.93,9.57-.16,1.98-.59,4.05-1,6-2.72-.58-1.94,1.37-2.46,2.99-1.3,4.01-1.66,7.33-2.54,11.01-.14.59.14,1.41,0,2-.07.32-.79,1.06-1,2-.54,2.45-1.67,5.34-2,8-.67.17-.73.49-1,1-.55,1.03-.38,3.06-1.07,4.2-1.52,2.5-5.98,7.4-8.93,7.8-4.54-1.73-10.82-1.04-16-2-3.15-1.03-6.72-3.57-8-4,.11-3.48-.99-6.45-1-10v-1c0-.83.95-3.26,1-5,0-.33,0-.67,0-1h1c1.99-4.19,1.28-10.65,0-15-.3-1.01-2.18-2.36-2-4ZM160.24,207.3c-1.4-.72-2.67.63-1.99.98,1.4.72,2.67-.63,1.99-.98ZM165.62,211.9c-1.16-1-1.9-2.93-3.88-3.61l1,3,9.49,6.5c-1.83-2.42-4.38-3.98-6.61-5.9h0ZM172.75,219.29v1c.65-.33.65-.67,0-1ZM174.24,223.28c.72-1.4-.63-2.67-.98-1.99-.72,1.4.63,2.67.98,1.99ZM177.25,231.28l-1.01-5.99h-.98v5.99h1.99,0Z"/>
  <path class="cls-5" d="M250.25,126.29c7.31-.12,15.04.83,21.99,0-.9,2.8.84,5.91,1.01,8-1.68,5.45-1.67,13.63,0,19,.02,8.44-.75,16.72-1,25-.08,2.59.84,3.08,1,4-.4,10.61.55,21.4,0,32,0,.07-.95.26-1,1-.13,1.9-.08,4.08,0,6,.05,1.1-.31,2.52,1,3,.24,5.66,2.01,15.19-5,16-6.59-.09-13.08-.95-20-1-.08-2.63,1.01-3.29-2.24-2.75-3.6.6-9.76,1.62-12.76,1.75-4.8.21-9.67-.11-14.49-.01l-17.51-1.99c.96-.09,1.67.32,2-1,.46-1.83-.32-4.93,0-7,.33.01.67-.02,1,0,1.78.1,3.89,1.57,5.91.92,1.5-1.02,1.16-12.32,1.09-14.92-.03-1.11-.96-2.36-1-3-.04-.6.17-1.2,0-3-.06-.66.06-1.34,0-2,3.5.41,1.09-.84.97-3.48-.1-2.17.19-4.37.03-6.52,3.17-.21,4.31-3.72,7-5,.71,5.42-1.68,36.82,2,38,7.99.8,15.98.77,24,1,5.06.15,11.58,1.07,16,1,6.2-.1,5.23-5.16,5-10,4.27-2.52.02-1.17-.09-3.42-.88-17.58.09-36.81.09-54.58v-3c2.91-6.14-.48-16.31,1.01-22.33.18-.72,3.7-.83.98-5.68-.97-.45-1.82.99-1.99,1-4.01.27-12.88,1.27-15-2-.03-1.67.04-3.34,0-5h0Z"/>
  <path class="cls-15" d="M50.25,206.29c2.92-2.74,2.05-3.97,2.01-8l.99,7,24-2c.07,3.08-.77,8.54,2.08,10.47.95.64,2.91.13,2.98,1.11.02.3-.24,4.98-.35,5.22-.07.15-1.45.43-2.03,1.43-.72,1.24-3.34,6.38-3.68,6.77-.13.15-4.12-.13-1.99,1.99s1.85-1.86,1.99-1.99c.18-.18,1.38,0,1.93-.59.94-1.01.68-2.61,2.06-2.4l-.99,9c-10.73-6-22.21-10.29-34-15-.89-.35-1.63-1.35-3-1.01-.39-.4,4.46-4.15.51-3.98-1.93,1.59-2.35,5.3-3.51,6.99-4.42,6.41-8.44,8.9-12,17-4.34.4-4.2-2.09-4.01-5.46.52-9.51,3.37-16.18,7.01-24.54,4.26.84,9.25.65,13.26-1.05,1.24-.52.04-2.75,2.73-1.95l.99,3.99c-.34-2.15,2.03-2.06,3.01-2.99h0Z"/>
  <path class="cls-3" d="M291.25,3.29c-4.91,3.84-10.92,13.05-13,19-2.08,4.45-5.61,2.79-5.93,3.01-1.27.87,1.39,5.45-6.52,3.94s-7.76-.23-15.16-.05c-2.61.06-5.52-1.54-8.39-.9v5.01c-6.5,1.18-2.89-2.58-4.09-3.96-.63-.73-3.31,1.22-2.89-1.53.58-3.83,3.76-2.21,6.4-2.5,3.02-4.6-3.87-2.02-3.42-6.02,3.25-5.89,2.59-6.6,8-12,1.45-.14,7.36-.67,7.88-1.18.45-.46-.43-4.57,2.11-2.8.2.14-.67,3.2,3.37,1.99,1.02-.3.55-1.96.64-2.01,2.52-1.62,24.48,1.98,29-1,.69.26,1.32.72,2,1h0ZM280.25,5.29c-1.47.22-7.69-.34-8.01,0-.14.14-.08,3.79.06,3.93,1.06,1.13,10.97,1.26,7.95-3.93Z"/>
  <path class="cls-5" d="M98.25,124.29c-1.28,1.65-4.39,5.08-5,6-4.07,0-7.96-.54-12-1-3.8-.44-3.1-1.68-8,0-.8.28-1.32.36-2,1-2.08,1.94-4.52,6.43-1.01,8-.6-1.76.72-2.95,1.01-4,.14.93-.2,2.17,0,3s.99.93,1,1c.72,6.67-1.09,13.97-1,21,.02,1.78,1,1.89,1,2,.1,8.98,0,18.02,0,27l-2.01-6c-2.17-.58-2.6.84-2.01,2.51.12.33,3.38.42,2.04,5.85-.29,1.18-2.44,0-2.01,1.63,1.31.11,2.68-.12,3.99,0,.65.06,1.34-.02,2,0,1.04.03,2.56.77,4,0-.03.05.9.34.74.78-.14.37-1.67.87-1.74,1.22-.42,2.19-.06,6.47,0,9l-24,2-.99-7c.04,4.03.91,5.25-2.01,8-4.85-1.21-3.6-8.65-4-13,4.82.8,12.11-.17,17-1,.92-.16,2.03.12,3,0-2.71-6.11.76-13.9-2-19.99.01-2.36,0-4.65,0-7,.81-.48.74-1.3,1-2,2.27-6.12,1.11-25.68,1.02-33.51-.02-1.69.64-4.45-1.02-5.49l.55-.92c4.11.59,8.08-.98,11.9-1.12,2.32-.09,8.42,0,10.89.11,2.67.13,6.97,1.15,9.66,1.93h0Z"/>
  <path class="cls-6" d="M272.25,178.29c3.03.56,1.92-1.53,2-3.45.64-16.13-.47-32.42,0-48.55,1.13-1.13,9.69.98,11.56.89,2.26-.11,6.07-4.07,9.45-2.89v7.01c-2.39-2.02-1.89.89-2.42.89-1.56-.02-4.26-2.6-5.57,1.11-1.32-.09-2.68,0-4,0-.13,0-.65-.87-1.46-.86-1.74.02-3.65,1.13-5.55.89v101.96c4.02.61,1.77-3.75,2.93-4.5,2.01-1.31,6.77-.55,8.59-3.49,1.36,4.82,5.95-.4,7.88-1.14s8.26-1.59,8.56-1.9c.57-.58-.33-10.89.05-12.96l3,.02-1.99,11.99,26.99-7v-19l-2,17c-.1-1.98.15-4.02,0-6,.05-15.65-.07-31.35,0-47h1c0,8.1-.84,17.23,1,25h1c.05,10.53-.09,21.08-.07,31.62,0,1.86,1.07,3.21,1.07,3.38-.02,1.12-1.72,2.29-2.76,2.74-11.76,5.09-31.72,8.2-44.51,11.49-3.08.79-5.89,2.89-9.73,3.77l-3.08-2.44.14-52.17c.42-1.03-1.02-2.15-1.06-2.39-.16-.92-1.08-1.41-1-4l-.02-.02Z"/>
  <path class="cls-15" d="M80.25,234.29c.89-2.75,1.38-6.49,2.36-8.68.34-.76,10.98-9.56,12.63-10.83,1-.78,1.28-1.93,3-1.49-1.97,14.43,6.16,28.07-.97,41.52-2.97,5.6-6.5,10.37-13.03,11.47-.53-.2-1.2.4-2.06-.66-1.12-1.38-5.23-12.87-5.56-15.02-.85-5.66,1.96-11.2,3.61-16.32h.02Z"/>
  <path class="cls-6" d="M301.25,1.29c4.11-.25,9.62-1.55,12.93.62,7.63,5.02,9.2,10.38,12.07,18.38h-1.35c-1.28-4.01-3.2.8-4.65-3-.12-.38.02-.91-.3-1.71-.22-.55-7.89-8.02-8.42-8.27-1.56-.74-3.03-1.23-4.79-1.1-5.66.39-8.73,7.48-12.49,11.08-.13.12-1.29-.29-1.74.23-.79.92-.7,3.46-1.26,4.77-.25.6-.68,1.23-1,2-.44,1.04-.63,2.11-1,3-.42,1.01-.63,2.01-1,3-1.39,3.77-3.94,7.47-4.77,11.75-.37,1.92-1.19,3.76,1.77,3.25-.16,4.71,2.12,6.55,5.5,10l1.48-1.99c-.97,6.86,1.26,4.06,2.75,5.17.91.69.65,2.9,1.35,4.01.62.99,3.89,6.21,4.16,6.49,1.06,1.1,3.27.89,3.63,1.44.62.95-.41,3.35.33,4.68.23.41,4.35,2.61,5.92,5.68,3.61,7.08,9.53,11.62,14.35,18.52,1.87,2.68,1.66,6.33,5.53,7-.04.33.03.67,0,1-.42,4.47,2.2,3.12,6,4-.16,1.65-.65,2.97-2,4-6.74-1.58-12.36-11.68-16.06-17.46-.79-1.23-.83-3.41-.95-3.54-.62-.68-1.88,1-1.99,1-.3,0-.72.06-1,0-1.29-1.55.06-3.29-.53-4.94-1.3-3.64-5.47-4.24-6.04-5-.4-.53,1.7-2.58-2.43-5.06-.52-.31-3.78-1.95-4-2l-3.07-8.95-4.93-.05c-1.58-2.23-5.14-5.54-6-7-.2-.33.14-1.51-.25-2.26-1.65-3.17-4.07-5.36-3.76-9.73-1.47-.49-.73,3.89-2.97,1.99-.24-.2-.68-4.55-3.01-5,3.44-1.64,2.09-3.01,3.1-5.21.43-.93,1.9-.84,1.91-1.37.04-1.24-1.3-2.87-1.06-4.75.06-.46,2.74-1.12,3.08-8.06.04-.76,1.75-.53,2.26-1.85,3-7.7,5.21-16.36,11.71-21.76,1.42-1.18,3.65-.62,3-3h-.01Z"/>
  <path class="cls-15" d="M9.25,212.29c4.29.39,9.36-.55,13.52,0,1.48.19,1.66-.57,1.42,1.43-2.44,14.3-3.01,30.87-16.82,39.47-1.69,1.06-.8.78-3.12.1-2.72-3.14-2.42-6.21-3-10-.34-7.56.6-13.83,3-21,1.45-4.33,3.29-6.42,5-10Z"/>
  <path class="cls-1" d="M115.25,219.29c4.02,0,2.44,1.23,3.75,1.96,8.08,4.48,12.27,6.48,20.7,8.08,3.52.67,4.44,3.86,6.55-.04,1.27,3.06,1.36,3.52,5,3,0,3.55,1.11,6.52,1,10-5.67-1.9-11.18.32-15.27-.2s-10.03-6.39-13.06-5.81c-.6.12-.57,1.62-2.02,2.18-4.46,1.73-10.25.45-14.64-1.16-.33-.12-.64-.8-1-1,2.03-3.72,3.96-8.18,5.32-12.2s-1.04-4.79,3.68-4.8h0Z"/>
  <path class="cls-1" d="M77.25,194.29l2.01,17c2.09-1.19,15.39-5.42,15.86-6.13,1.74-2.67-1.88-9.71-1.86-12.87,4.34,1.39,2.28,12,3.12,12.87.73.76,4.64,1.56,4.87-.87.05.99.02,2.01,0,3-.28,15.5,1.33,24.98,2,39.55.09,1.92-1.03,4.01,2,3.45-1.44,6.97-9.71,15.32-16.77,16.82-2.7.57-2.59-.21-4.23-.82,6.53-1.1,10.06-5.87,13.03-11.47,7.12-13.45-1-27.09.97-41.52-1.73-.45-2,.71-3,1.49-1.64,1.27-12.29,10.07-12.63,10.83-.98,2.19-1.47,5.93-2.36,8.68h-1l.99-9c-1.38-.21-1.12,1.39-2.06,2.4-.55.59-1.74.41-1.93.59-.14.14.12,4.11-1.99,1.99s1.86-1.85,1.99-1.99c.35-.39,2.96-5.53,3.68-6.77.58-1,1.97-1.29,2.03-1.43.11-.24.37-4.92.35-5.22-.07-.99-2.04-.47-2.98-1.11-2.85-1.93-2.01-7.39-2.08-10.47-.06-2.53-.42-6.81,0-9h-.01Z"/>
  <path class="cls-15" d="M34.25,186.29l-1,15c-.33.07-.7-.09-1,0-4.64,1.35-5.49-.95-7.55,5.04-2.39-1.59-8.71-3.04-10.45-4.04-.23-.13-3.42-3.79-3.54-4.03-.91-1.98,4.79-13.67,6.97-15.03,6.11-3.78,7.54.4,12.04,2.12,1.54.59,3.69.57,4.52.94h.01Z"/>
  <path class="cls-1" d="M32.25,201.29c-.15,2.25-1.11,4.95-2,7-3.64,8.36-6.49,15.03-7.01,24.54-.18,3.37-.33,5.86,4.01,5.46-.94,2.14-.58,4.03-2.57,6.93-3.8,5.55-14.42,14.99-20.43,8.07,2.32.68,1.43.96,3.12-.1,13.81-8.6,14.38-25.18,16.82-39.47.24-2,.05-1.24-1.42-1.43-4.16-.54-9.23.39-13.52,0,1.47-3.07,2.14-8.01,5-10,1.75,1,8.07,2.46,10.45,4.04,2.06-5.99,2.9-3.69,7.55-5.04Z"/>
  <path class="cls-7" d="M90.25,54.29c-.71,5.22,1.58,1.14,5.02,2.41,10.84,4.02,2.74,14.86,2.03,23.28-.18,2.19.18,2.3,1.95,3.31-1.1,1.13-4.64.94-2.98,2.99.53.66,3.19-1.32.97,5l-1-3.99-2.98,1-.02-4c-4.73,2.14-2.13.4-3.03-2.28-.21-.63-2.87-2.91-2.86-3.17.27-5.25-1.04-3.57-1.02-3.98.05-.94,1.25-2.22.96-3.94-.11-.66-1.83-.52-2.03-1.32-.77-3.13-.66-6.4,2.99-5.33.41-.25-.97-1.49-1.01-1.99-.27-4.06.7-5.26,3-8h.01Z"/>
  <path class="cls-15" d="M320.25,17.29c1.46,3.8,3.38-1.01,4.65,2.99h1.35c6.54,18.2,10.09,28.57,11,49.01h-1l-.99-1v3c-.11.61.04,1.35-.01,2-.15,2.05-.6,5.74,1,7,.01,1,0,2,0,3-2.25,3.78-.44,9.28-1,13.5,1.32,1.58.98-.75,1-1.5h1c-.2,5.29-.5,10.74-1,16-3.8-.88-6.42.47-6-4,3.04,3.19,3.56-6.49,3.62-7.67.4-7.79.05-18.78-.18-26.83-.1-3.45,0-8.46-1.44-11.5v-1c-.03-1.89.68-4.91-1-6-.01-.33.02-.67,0-1-.33-4.79-.92-5.84-2-10-.92-3.56-2.47-5.89-1.01-10.01l-1.96,1.01c-.93-2.71-1.62-6.37-2.66-8.89-1.58-3.8-2.11-4.05-3.37-8.11Z"/>
  <path class="cls-12" d="M113.25,207.29c1.08,3.4,1.68,6.03.19,9.66-.63,1.54-4.83,2.51-5.94,5.06-2.08,4.76.34,10.33-3.25,13.79-.04,1.03,1.54.24,2,.49.36.2.67.88,1,1-1.93,4.13-1.12,8.73-2,13-3.03.56-1.92-1.53-2-3.45-.67-14.56-2.28-24.05-2-39.55,3.37-1.34,7.28,5.61,8.01,0,1.94-.48-.03,2.21,1.98,1.99l.51-5.01c.35,0,1.3,2.37,1.5,3.01h0Z"/>
  <path class="cls-11" d="M101.25,51.29c22.27,3.4,1.42,18.1,0,26-.08.42-.11,1.76,0,2-1.17,1.12-.82,2.78-2,4-1.77-1.01-2.13-1.12-1.95-3.31.71-8.42,8.81-19.26-2.03-23.28-3.43-1.27-5.73,2.82-5.02-2.41,1.92-2.28,1.98-2.3,5-3s3.11-.44,6,0Z"/>
  <path class="cls-7" d="M89.25,91.29c3.01,4.92,3.76,5.23,5,11,.12.54.88,1.19,1,2-3.05-.57-3.06,2.59,0,2-.02-.65.1-1.35,0-2h1c.87,1.28,1.59,2.49,2,4-1.36-.32-3.47.22-5,0,1.61,3.08,3.23,6.37,3,9.99-8.79,1.44-6.23-1.04-12-2-.62-5.43.76-10.66,1-16,.13-2.86-1.13-6.16-1.03-7.43.05-.62,1.92-.44,2.02-1.17.14-1.09-1.36-3.48.03-5.39l2.99,4.99h0Z"/>
  <path class="cls-11" d="M105.25,76.29c1.35-4.72,2.29-5.84,7.43-4.93,7.02,1.25,6.46,5.79,6.57,11.93-1.66.3-3.26,1.06-5,1.01l1,4.99c-.42.2-.96-.21-1,1h-1c-2.83-.4-2.83,1.4,0,1-1.16,1.58-.79,3.3-1,5-4.41.58-5.6.71-7-5-.06-.25.95-1.08.92-1.53-.04-.55-3.4-.31-1.9-2.45.41-.58,1.64,1.66,1.98-3.02.17-2.34.64-6.46-1-8Z"/>
  <path class="cls-1" d="M83.25,116.29c.32,0,.69-.05,1,0,5.77.96,3.21,3.44,12,2,2.76-.45,6.89-2.43,6,1-1.96,1.76-2.49,3.07-4,5-2.68-.78-6.99-1.8-9.66-1.93-2.47-.12-8.58-.2-10.89-.11-3.82.14-7.79,1.72-11.9,1.12l-.55.92v39c-.26.7-.19,1.52-1,2,.01-14.42-.12-28.93-.05-43.32.77-1.35,8.01-1.51,10.07-2.16,3.23-1.02,4.97-3.44,8.98-3.52h0Z"/>
  <path class="cls-15" d="M78.25,47.29c.33.03.67-.02,1,0,6.45,1.67,15.55,1.67,22,0h4c3.16.02,6.37-.17,9.54-.03,2.62.11,3.87,2.54,3.46-.97,6.37.13,13.35.87,20,1,.67.01,1.33,0,2,0v2c-1.61.03-4.16-.6-5,1-9.49.03-19.01-.12-28.51-.02-1.69.02-4.45-.64-5.49,1.02-2.89-.44-2.9-.72-6,0-5.71-2.28-12.93-.41-19-1-1.43-1.77-1.92,1.28-3-4,1.71-.13,3.45.86,5,1Z"/>
  <path class="cls-1" d="M101.25,3.29c3.81-1.09,7.34-2.65,11.56-2.09,1.88.25,1.29,1.97,2.05,2.05,7.44.76,17.12-.06,24.9.02,1.69.02,4.44-.64,5.49,1.02-.8.49-1.91.93-2,1-1.55-1.49-3.56-.99-5.46-1.03-14.42-.28-30.25-2.9-40.17,9.4-.78.97-.68,2.66-1.37,3.63-.21.3-3.33,3.32-3.97,4.67-.2.42.03.91-.03,1.33l-3.99-1.48c4.56-7.09,8.95-13.29,16.5-17.51,0,0-3.51-1.01-3.51-1.01Z"/>
  <path class="cls-6" d="M46.25,193.29c.4,4.35-.85,11.79,4,13-.99.93-3.36.84-3.01,2.99l-.99-3.99c-2.7-.8-1.49,1.43-2.73,1.95-4.02,1.7-9.01,1.89-13.26,1.05.89-2.05,1.85-4.75,2-7,.3-.09.67.07,1,0,1.32-.3,2.72-1.79,4.59-1.99,5.89-.63,8.98,4.28,6.41-7.01.58.26,1.89.98,2,1h-.01Z"/>
  <path class="cls-5" d="M34.25,186.29c3.76,1.69,6.88,4.63,10,6,2.57,11.29-.52,6.38-6.41,7.01-1.87.2-3.27,1.69-4.59,1.99l1-15Z"/>
  <path class="cls-1" d="M95.25,51.29c-3.02.7-3.08.72-5,3-2.3,2.74-3.27,3.94-3,8-3.26-.98-6.82-4.91-9.01-7.5-1.4-1.65-1.6-4.02-1.99-4.5,6.07.59,13.29-1.28,19,1Z"/>
  <path class="cls-12" d="M190.25,2.29c3.82,2.24,9.58.46,14,1-.13,0-1.13.98-2.42,1.04-5.83.26-11.75-.28-17.57-.03-.23,1.75,2.27.94,3.48.99.94.04,11.96-.63,8.51,1.99-4.54-.66-11.27.89-15.45.07-1.2-.24.11-2.9-1.1-3.14-2.19-.43-17.18-.37-19.45.07v-2c9.01-1.05,20.58.06,30,0h0Z"/>
  <path class="cls-1" d="M273.25,182.29c.04.24,1.48,1.37,1.06,2.39l-.14,52.17,3.08,2.44c-2.98.68-5.92,1.04-9,1,7.01-.81,5.24-10.34,5-16-.05-1.1.31-2.52-1-3-.08-1.92-.13-4.1,0-6l1-1c.55-10.6-.4-21.39,0-32h0Z"/>
  <path class="cls-14" d="M289.25,2.29c-4.52,2.98-26.48-.62-29,1V1.29c6.93-.17,23.42-1.1,29,1Z"/>
  <path class="cls-1" d="M241.25,2.29c-2.4.88-2.4.85-5,1-10.49.6-21.45-.37-32,0-4.42-.54-10.18,1.24-14-1,16.98-.1,34.02.08,51,0Z"/>
  <path class="cls-8" d="M260.25,1.29v2c-.09.06.38,1.71-.64,2.01-4.04,1.2-3.17-1.86-3.37-1.99-2.54-1.77-1.66,2.34-2.11,2.8-.52.52-6.43,1.05-7.88,1.18,1.64-1.64,3.96-2.81,4-5,.33-.05.68.06,1,0s.67.05,1,0l.5.98.5-.98c2.49-.27,3.26-.91,7-1Z"/>
  <path class="cls-6" d="M233.25,238.29c3-.13,9.16-1.15,12.76-1.75,3.25-.54,2.16.12,2.24,2.75-5-.04-10.19.57-15-1Z"/>
  <path class="cls-1" d="M1.25,243.29c-.04-.29-.92-1.08-1.04-2.42-.51-5.75-.38-14.33,4.04-18.58-2.4,7.17-3.34,13.44-3,21Z"/>
  <path class="cls-1" d="M337.25,95.29h-1c.16-3.97.02-8.03,0-12,0-1,.01-2,0-3-.02-2.19.74-5.64-1-7,.05-.65-.1-1.39,0-2,.04-.23,1.23-1.15,1-2h1c.37,8.24.31,17.74,0,26Z"/>
  <path class="cls-2" d="M106.25,84.29h-4c2.14-3.89-.59-4.06-1-5-.11-.24-.08-1.58,0-2l3.99,2c.17-.93-.21-2.22,0-3,1.64,1.54,1.17,5.66,1,8h.01Z"/>
  <path class="cls-14" d="M160.25,2.29v2c-.37.07-6.22,2.61-7,3l-1-1c.15-.19-.42-1.37.6-2.08.36-.25,4.7-1.78,5.4-1.92.6-.12,1.35.08,2,0Z"/>
  <path class="cls-1" d="M64.25,172.29c2.76,6.09-.71,13.88,2,19.99-.97.13-2.08-.15-3,0,1.82-6.18.96-13.49,1-20h0Z"/>
  <path class="cls-1" d="M39.25,221.29c1.17-1.69,1.58-5.4,3.51-6.99,3.95-.17-.91,3.58-.51,3.98,1.37-.34,2.11.66,3,1.01l-6,2h0Z"/>
  <path class="cls-11" d="M84.25,116.29c-.31-.05-.68,0-1,0,.87-4.79-2.11-12.91,2-16-.24,5.34-1.62,10.57-1,16Z"/>
  <path class="cls-1" d="M176.25,248.29c-6.38.86-10.31-.15-16-2,5.18.96,11.46.27,16,2Z"/>
  <path class="cls-1" d="M203.25,235.29c-.33,1.32-1.04.91-2,1-4.79.45-10.13-.32-15,0,.27-.51.33-.83,1-1,3.96-1.01,11.52.73,16,0Z"/>
  <path class="cls-12" d="M301.25,1.29c.65,2.38-1.58,1.82-3,3-3.24.29-3.29.24-3-3,2.26-.65,3.74.14,6,0Z"/>
  <path class="cls-3" d="M252.25,2.29c.32-.05.67.04,1,0l-.5.98-.5-.98Z"/>
  <path class="cls-8" d="M219.25,153.29c2.21-2.83.19-19.2.99-20.01,4.55.78,12.34-1.04,16.36-.03.95.24.73,1.31.64,2.03-1.48,7.35-1.11,15.02-1.02,22.51.02,1.69-.64,4.45,1.02,5.49.21,1.4,1.61,3.46,2,5,.09,3.12-.13,7.12,3,9,1.52.91,2.41.12,3.9-.12.42-1.24-.08-2.66.1-3.88.41-2.87,2.29-8.1-1-7,.79-2.46,1.87-3.53,1.93-3.76.71-2.65.93-6.43,1.07-9.24,4.84-.98,7.16,4.38,8.07,7.96l1.92-.97c-.78,7.65,1.05,17.19.09,24.57-.24,1.85-1.87,1.31-2.06,2.12-.43,1.88.18,4.32-.03,6.32,1.33.06,2.67-.07,4,0,.07,2.81-1.15,6.87,2,6,.02.67-.02,1.33,0,2,.08,3.04-1.28,8.99,2,8v1c-5.86,4.02-4,12.61-4,19-5.28-.29-10.74.4-16,0-6.16-.47-12.44-2.03-19-2,4.03-.79,3.55-5.03,3.06-8.54-.28-1.99-3.56-3.13-3.77-3.7-.65-1.84.05-3.46-.31-5.07-.17-.76-1.78-.62-1.96-1.37-.9-3.75-.1-16.31.98-20.31.49-1.82,3.29-4.75,2.88-7.55l-3.88-9.45c1.27-5.31-1.71-12.61-3-18h.02Z"/>
  <path class="cls-13" d="M90.25,155.29c6.97.11,5.09,1.08,10.06,4.28,15.85,10.21,26.99,20.61,44.94,20.72,0,3.13-1.62,7.32.52,11.02,10.89-1.96,13.11.98,10.48-11.02,1.3-1.13,2.75-1.73,4.4-2.2,10.11-2.88,19.17-7.44,29.6-8.8,2.37,2.13,6.86.57,10,1,1.24.83,3.74,1.39,5,3,.06.99-.03,2,0,3,.1,2.77-.32,6.11,0,9-1-.21-3.56.29-3.99,0-.2-.14.83-1.79-1.42-2.09-7.47-.97-12.59,1.65-19.21,2.78-1.98.34-6.39.28-8.51.83-7.09,1.83-14.38,4.86-21.85,5.48-3.76-.51-8.09,1.06-10,1-12.4-.38-26.49-7.58-37-14-6.9-4.21-14.25-10.98-21.8-13.9-2-.77-5.01-.92-7.2-1.1v-4c2.84-2,.61-2.71,4-4,.24,1.66-2.46,2.78.48,3.01s5.73-.63,8.51.99c.8-2.74-3.2-2.5-4.99-3-1.05-3.17,5.05-2.05,8-2h-.02ZM198.24,175.3c-4.69,0-9.11-.4-13.68.85-1.71.47-2.79-.73-2.31,2.13l15.99-2.98h0Z"/>
  <path class="cls-1" d="M146.25,47.29l.5.98.5-.98c4.32.03,8.68-.03,13,0l1.49.99.51-.99h2c3.2-.9,1.26,2.75,2.55,3.07,2.46.62,12.09.05,15.45-.07.33-.01.67.01,1,0,.67-.02,1.33.02,2,0l4,2c-3.42,1.34-3.56,2.78-5,6-4.07-.94-7.96-1.11-12,0-.63-.03-1.39-.08-2,0,3.58-9.73-14.54-7.37-16-1-.46,2.01-1.12,8.85,1,10-.16.52.11,1.37,0,2-3.85.27-16.48,3.32-20,5-.21-1.52.54-2.68,1-4,3.29-.15,12.19-11.57,11.84-13.36-1.08-5.55-11.08-5.22-15.14-3.64-1.35.53-.51,1.69-.71,1.99-2.58,3.93-2.4,5.55-3,10-.75,5.52.06,7.07.06,11.55,0,5.77-5.49,5.71-9.06,6.45-.32.07-.68-.06-1,0-.11-6.14.45-10.68-6.57-11.93-5.14-.91-6.08.21-7.43,4.93-.22.78.16,2.07,0,3l-3.99-2c1.42-7.9,22.27-22.6,0-26,1.04-1.66,3.79-1,5.49-1.02,9.5-.1,19.03.05,28.51.02s19.34.03,28.99-.01c.23-1.74-2.27-.94-3.48-.99-6.7-.27-13.8-.13-20.51,0v-2c2,.02,4-.01,6,0h0ZM116.25,56.29c-1.45,2.32-1.6,10.21.68,12.05,4.54,3.65,3.08-2.31,4.28-4.41,1.03-1.8,3,1.55,3.04-3.64.04-5.81-5.27-8.36-8-4h0Z"/>
  <path class="cls-10" d="M93.25,130.29c-2.11,3.2-3.97,8.42-6.34,12.19-1.79,2.85-7.23,8.12-7.44,11.1-.02.34.78.58.78.71,0,.34-.07.73,0,1-.83-.02-1.46.79-2,1-3.39,1.29-1.16,2-4,4,0-1.14-1.07-3.45-1-6,0-.13.99-1.12,1.04-2.42.2-4.77-.81-11.6,0-15.9.13-.69,1.43-.73,1.55-.96.25-.48-.43-2.53.94-2.72,2.24-.32,3.53,3.61,4.48-3,4.04.46,7.93,1.01,12,1h-.01Z"/>
  <path class="cls-4" d="M186.25,67.29c.18.14-.6,3.07,3,2,.1.22,2.86,1.58,2.01,3.99.26.47,2.51-2.27,2.99-2.99.66-.06,1.35.08,2,0v1c-1.09,3.49,1.98,2.94,3.04,4.46.32.47,6.62,9.41,1.96,8.54-12.45-15.36-21.24-13.93-39.58-13.96-1.29,0-2.29-1.04-2.42-1.04,1.49-1.82,3.47-3.23,5-5,4.22,1.51,18.73.34,22,3Z"/>
  <path class="cls-5" d="M220.25,126.29h-3c2.01-.18,1.88,0,3,0Z"/>
  <path class="cls-5" d="M217.25,126.29c.06,1.54,2.94,1.54,3,0,5.99-.03,12.01.02,18,0-.08.36.33,4.21,0,7-6.06-2.29-13.6-.39-20.01-1.01-.18,3.17.26,6.42.05,9.59-.09,1.3-1.04,2.29-1.04,2.42-3.68-1.52-1.1-2.89-1.09-4.55,0-.28-1.82.09-1.91-4.45-.04-2.32,1.15-7.62.89-7.92-.39-.44-2.29.65-1.88-1.07,1.31-.11,2.68.11,3.99,0h0Z"/>
  <path class="cls-7" d="M170.25,58.29c-4.15.52-2.98,2.89-4,4-.58.63-1.27,1.15-2,2-1.53,1.77-3.51,3.18-5,5-1.32,0-2.69-.09-4,0,.11-.63-.16-1.48,0-2,.89-2.89,2.85-10.73-1-10,1.46-6.37,19.58-8.73,16,1Z"/>
  <path class="cls-7" d="M155.25,179.29c-1.1,3-6.25,1.02-10,1,0-8.32,0-16.68,0-24.99,1.98-.39,2.38.93,3.19,2.3,3.66,6.18,5.1,14.87,6.8,21.7h0Z"/>
  <path class="cls-13" d="M222.25,171.29l3.88,9.45c.41,2.8-2.38,5.73-2.88,7.55-.99.05-2.01-.08-3,0-1.61.13-2.76.98-3,1-1.22.12-2.76.08-4,0l-1-11c3.88-1.04,8.99-2.79,10-7Z"/>
  <path class="cls-1" d="M196.25,71.29c7.57,2.41,10.77,9.96,16,14.5l-2.01,1,2,.48c.18.91-.24,2.31,0,3.01v12.99c-2.43.6-2.04-1.34-3-2.99.18-1.93-.68-3.38-1.47-5.02-1.45-3.04-4.47-8.43-6.53-10.98,4.66.87-1.64-8.07-1.96-8.54-1.06-1.52-4.12-.97-3.04-4.46h0Z"/>
  <path class="cls-1" d="M220.25,126.29c-.06,1.54-2.94,1.54-3,0h3Z"/>
  <path class="cls-1" d="M213.25,119.29c1.45,0,3.45,3.03,3.68,3.06,1.34.19,2.14-1.06,2.32-1.06.66-.04,1.34,0,2,0,4.09-.03,8.42.86,12,0,1.06,1.08,4.34,2.06,6,2h1c-.71,2.4-1.96,2.82-2,3-5.99.02-12.01-.03-18,0-1.12,0-.99-.18-3,0-1.31.12-2.68-.1-3.99,0-.41,1.73,1.49.64,1.88,1.07.27.3-.93,5.6-.89,7.92-1.69-3.52-3.7-9.16-3-13,.12-.66,1.5-2.27,2-3Z"/>
  <path class="cls-11" d="M98.25,108.29c.83.2,2.67,2.43,2.99,2,.63-3.82-1.99-8.75,2.52-9.95.4.02,4.19,6.1,4.32,6.7.14.68-3.29,10.99-3.75,11.65-.76,1.08-1.92.46-2.08.61.89-3.43-3.24-1.45-6-1,.23-3.62-1.39-6.91-3-9.99,1.53.21,3.64-.33,5,0v-.02Z"/>
  <path class="cls-7" d="M205.25,173.29c-.83-12.89-3.34-25.94-2.99-38.99,2.58-.43,1.81.38,2.28,2.16.94,3.52,2.08,8.28,2.71,11.84-3.31-.44-1.67,1.18-1.51,3,.41,4.62.96,9.39,1.51,14,.48,3.99,1.13,8.08,2,12-1.1-.5-2.79-.55-4-1-.03-1,.06-2.01,0-3h0Z"/>
  <path class="cls-7" d="M132.25,55.29l1,2.45.98-1.44c-.5,2.74,3.78,3.66,4.05,4.69.73,2.82-1.08,6.55-2.03,9.3-.46,1.32-1.21,2.48-1,4-.99.47-.89,4.89-3.96,2.98-1.79-1.12.04-10.15-2.04-11.98.6-4.45.42-6.07,3-10Z"/>
  <path class="cls-5" d="M156.25,180.29c2.62,11.99.4,9.06-10.48,11.02-2.14-3.7-.52-7.89-.52-11.02,3.75.02,8.9,2,10-1,.08.34.94.73,1,1Z"/>
  <path class="cls-7" d="M214.25,93.29c.7,1.39,1.25,3.77,2,5v3c0,1.03.19,4.74,0,5-.15.21-1.75-.25-2,0s.22,1.76,0,2-1.49-.56-2,1c-.15.46.05,1.36,0,2-.13,1.65.09,3.35,0,5-.48-.48-2.41-.51-2.79-1.17s-1.76-9.71-2.21-11.83c-.27-1.3-1.92-4.93-.99-6,1.5-1.72,2.27,1.75,2.99,3,.96,1.66.57,3.59,2.99,2.99v-12.99c.54,1.51,1.57,2.14,2.01,3Z"/>
  <path class="cls-5" d="M209.25,177.29c.82.38-.44,1.41,2,1,.34-.06.71.08,1,0l1,11c-3.13-.19-1.86-.51-2.01-4h-.98c.59,1.46-1.08,4.39-1.01,5-1.59-.34-2.77.66-4,1h-5l1-6c.44.3,3-.2,3.99,0-.32-2.9.1-6.24,0-9,1.21.45,2.9.5,4,1h0Z"/>
  <path class="cls-1" d="M238.25,133.29c-.08.65.06,1.35,0,2h-1c.09-.73.31-1.79-.64-2.03-4.02-1.01-11.81.81-16.36.03-.81.81,1.21,17.18-.99,20.01-.8-3.33-2.1-4.58-2-9,0-.13.95-1.12,1.04-2.42.22-3.17-.22-6.42-.05-9.59,6.41.61,13.94-1.28,20.01,1.01h0Z"/>
  <path class="cls-9" d="M207.25,103.29c.45,2.12,1.82,11.17,2.21,11.83s2.32.69,2.79,1.17c.15.15.27,2.73,2,3-.09.15-.9-.15-1,0-.5.73-1.88,2.34-2,3-4.97-3.26-.11-2.8,0-3.01,1.41-2.89-2.42-1.25-3.02-2.63-.82-1.85-2.23-11.15-.96-13.36h0Z"/>
  <path class="cls-11" d="M209.25,165.29c.62,4.09,1.84,8.62,2,13-2.44.41-1.18-.62-2-1-.87-3.92-1.52-8.01-2-12h2Z"/>
  <path class="cls-9" d="M207.25,148.29c.93,5.28,1.17,11.51,2,17h-2c-.56-4.61-1.1-9.37-1.51-14-.16-1.82-1.8-3.44,1.51-3Z"/>
  <path class="cls-9" d="M119.25,83.29c.32-.06.68.07,1,0,.81,2.11.96,2.28,0,4l-1.99-1c-.15.62.17,1.56,0,2-.13.33-.91.67-1,1-.6.13-1.61-.19-2,0l-1-4.99c1.74.06,3.34-.7,5-1.01h0Z"/>
  <path class="cls-11" d="M190.25,169.29c2.58-.34,5.94-1.91,9.35-1.02,1.11.29.56,1.96.65,2.02-3.14-.43-7.63,1.13-10-1Z"/>
  <path class="cls-11" d="M80.25,154.29c3.41,1.32,10.98-2.93,10,1-2.95-.05-9.05-1.17-8,2-.52-.14-1.45.24-1.95-.06-.08-.05.22-.84-.05-1.94-.07-.27,0-.66,0-1Z"/>
  <path class="cls-7" d="M112.25,96.29c1.99-.26,2.3-.15,1.99,1.99-.64.09-1.39-.11-1.99,0-.17,1.09-.31,5.93-2.48,4.99-1.86-.81-1.53-3.11-.58-4.39s2-.4,3.07-.6c.1-.63-.08-1.35,0-2h0Z"/>
  <path class="cls-7" d="M117.25,89.29c-.63,2.28.46,6.83-3,5.99,1.32-1.91-.03-3.96,0-4.99.04-1.21.58-.8,1-1,.39-.19,1.4.13,2,0Z"/>
  <path class="cls-1" d="M120.25,87.29c-.42.75-.71,1.52-1.5,1.98l-.5-.98c.18-.44-.14-1.38,0-2l1.99,1h0Z"/>
  <path class="cls-7" d="M158.24,71.3c1.09,1.09-.9,3.08-1.99,1.99s.9-3.08,1.99-1.99Z"/>
  <path class="cls-7" d="M113.25,90.29v1c-2.83.4-2.83-1.4,0-1Z"/>
  <path class="cls-6" d="M96.25,104.29h-1c-.12-.81-.88-1.46-1-2,1.08.33,1.43,1.16,2,2Z"/>
  <path class="cls-14" d="M287.25,133.29c1.62.1,7.56-.32,7.95.05.87.84.68,9.47,1.08,11.25.13.57,5.04,7.84,4.91,10.26l.12,66.83c-2.69.7-22.35,7.58-23.05,6.61-1.55-2.15,1.88-3.28,1.97-3.67,1.01-4.48-1.79-14.55-2.02-19.79-1.04-23.22.85-47.25.05-70.54,2.06.93,3.96,1.85,4.99-1,1.32,0,2.68-.09,4,0h0Z"/>
  <path class="cls-14" d="M316.25,139.29c.39-1.37,1.28-2.81,1.74-4.76.32-1.37.09-5.04.28-5.23.28-.28,7.39-.75,7.87.1s-.15,2.85.36,4.1c.66,1.61,2.15,2.75,2.56,4.48,3.28,14.01-.41,49.97.13,66.92.06,1.84,1.05,3.08,1.07,3.38.15,1.98-.1,4.02,0,6l-11.22,3.37-10.78,1.63v-14c4.27.56,4.72-.13,4.05-4.54-.75-4.92-3.7-2.61-4.12-4.07l.07-42.39c2-.88,2.22-2.93,3-4,.12-.16,1.53-.28,2-1,1.31-2.02,2.21-7.18,3-10h0Z"/>
  <path class="cls-9" d="M228.25,60.29c.31-.08.68.07,1,0-.16.75.24,2.73,0,3-.22.26-2.08-.55-2.01.5,1.56,1.68,4.08,1.2,6.01.5v4.01c1.02.25,3.42-.33,4,0,.68.38,3.3,4.88,3.59,5.09,3.2,2.34,4.89-1.84,3.41,3.91-.38,1.49-.96,2.07,1.02,3.99,1.29-.1,1.72-3.05,3.48-2.97.77.04,1.48,3.39,1.5,3.98.03.93.14,2.15,0,3-.02.11-1.63,1.34-.99,1.99.22.23,1.65-.22,1.99,0,1.84,1.24-.67,6.93,2.99,5.99l.02-11.99c1.83-.15.57,2.26,1.97,3.52.58.53,1.86.29,2.02.47,1.51,1.66,1.77,3.15,4,5,.3.25,1.8-.03,2.57.96.65.83-.61,1.84-.57,2.04-2.58-.54-2.05,1.25-2.72,2.73-3.23,7.19-8.77,17.54-6.28,25.27-.97.13-3.06,1.92-5,1-.08-3.84.92-1.58,1.04-2.57.1-.81-1.03-2.39-1.04-3.43,0-.66-.06-1.35,0-2,.03-.36-.1-.79,0-1,.03-.06.87-.9,1-1,.29-.22,1.78.26,2,0,.83-1-.91-2.63-1-3-.04-.17-.04-.97,0-1,.49-.32,3.06.66,2.03-2.48-.25-.77-1.98-.43-2.03-.52-.49-.86.94-3.46-.99-3v6c-.37.27-.67.83-1.01,1-.8.4-4.46.43,0,1,.49,1.84-.65,1.66-1,2l-1.99-1c-.06.66.06,1.34,0,2-.03.33.01.67,0,1-1.24,1.3-1.08,3.24-3,4-.31-1.72-1.53-3.55-2-5-.07-.21,1.12-1.22.79-1.81-.11-.21-1.6-.17-2.12-1.4-.6-1.44-.51-4.62-.68-4.79-3.12-3.01-3.79,4.81-3.99,7.01-.15,1.66-.46,4.5,0,6-.93,2.23-2.18.38-3,0-7.01-13.72-8.66-29.86-22-39,1.91-1.02,1.01-3.19.07-4.58-.5-.74-8.89-8.54-10.07-9.42,3.21.88,1.54-2.47,2-3,.38-.44,7.28,2.38,9,2-.06.35.11.93,0,1-.4.25-2.08-.55-2,.5l1.99,1.51v-2h1.01c.26,1.64,2.72,7.96,4.5,7.96.55,0,5.68-5.77,6.5-6.96,1.92-2.8,1.27-5.32,4-6h0ZM254.24,102.29v-4.99h-.98v4.99h.98Z"/>
  <path class="cls-11" d="M264.25,50.29c5.2-.09,13.88,2.1,16.27,7.22,2.05,4.39-1.65,5.54,6.73,4.78.86,1.46,4.42,4.77,6,7,2.62,3.71,3.73,3.25,2,8.99.41.37,4.65-.29,6,0,.22.05,3.48,1.69,4,2,.68,2.41,1.41,4.95,1.01,7.5-.33,2.12-1.64,1.97-2.01,2.5-1.58-2.46-5.59-3.56-5.01-7-3.49-.84-1.13,2.45-2.23,3.8-.38.47-1.7.1-1.76.19.99-2.28-1.88-3.68-2-4-1.78-4.87-3.49-7.23-4.73-10.19-.39-.94,1.22-6.52-4.34-4.22l-1.94,10.41c-2.15-3.8-2.05-8.77-2.01-13-4.88.92-6.97,6.09-9.99,10,1.24-3.53-3.19.34-1.98-2.48,1.1-2.57,3.64-2.58,3.27-6.22l6.71-5.3c-3.97,1.93-3.17-1.08-5.09-2.41-3.29-2.27-8.97-4.32-8.9-9.59v.02Z"/>
  <path class="cls-7" d="M264.25,50.29c-.07,5.27,5.61,7.32,8.9,9.59,1.92,1.33,1.12,4.34,5.09,2.41l-6.71,5.3c.38,3.64-2.17,3.65-3.27,6.22-1.21,2.82,3.22-1.05,1.98,2.48-3.38,4.37-1.5,3.34-2.95,6.27-.28.56-3.51,2.74-4.05,3.73-4.01.82-1.21-5.87-5-5,.05-.66-.01-1.34,0-2,0-.07.76.45.75-1.25l-1.75-18.75c.38-1.85,1.13-6.72,2-8,.08-.12,1.67-.93,2-1,.79-.17,2.06.02,3,0h0Z"/>
  <path class="cls-7" d="M264.25,93.29c.39,2.16,2.14,6.59,3,9l-3.02,5.49,3.03.52c-1.69,2.93-.69,6.18.03,9.27.28,1.18,4.25.38-.04,2.73-3.82.39-8.33.51-12,1-2.49-7.73,3.05-18.08,6.28-25.27.67-1.49.14-3.27,2.72-2.73h0Z"/>
  <path class="cls-7" d="M282.25,79.29l1.94-10.41c5.56-2.29,3.94,3.29,4.34,4.22,1.24,2.96,2.95,5.32,4.73,10.19-3.8,1.15-5.03,5.37-9.47,6.01-2.4-.4-1.34-8.06-1.53-10.01h-.01Z"/>
  <path class="cls-11" d="M278.25,110.29c3.54-6.95,5.86-18.22,10.32-3.82.88,2.85.7,5.98,1.69,8.81.83.57,4.84-1.44,5.99-2l1,5c-1.83.07-6.36,2.99-8,3,.18-1.34,1.53-3.73.88-4.84-.34-.58-9.96-6.3-11.88-6.16h0Z"/>
  <path class="cls-7" d="M278.25,110.29c1.92-.14,11.54,5.58,11.88,6.16.65,1.12-.7,3.51-.88,4.84-4.46.02-10.02-.04-14.58-.1-.79,0-.23-1.7-.42-1.9.17-.87-.25-2.35,0-3,.53-1.39,3.09-4.22,4-6Z"/>
  <path class="cls-6" d="M330.25,127.29h-12c-2.32-9.7,8.38-7.32,15.01-8,.05,2.32-.07,4.68,0,7-1.17-1.49-2.73-.58-3,1h-.01Z"/>
  <path class="cls-6" d="M306.25,155.29v54h-.99c.85-1.87-1.01-4.62-1.01-5.5v-48.5h2Z"/>
  <path class="cls-6" d="M316.25,129.29c.21-1.52.2-1.97-1.46-2.11-3.91-.32-9.15,2.18-13.54,1.11-2.16-9.3,10.02-5.11,16.01-6.01-.11,2.31.16,4.7,0,7.01h-1.01Z"/>
  <path class="cls-15" d="M312.25,137.29l2.01-8.99.98,3.49,1-2.5h1c-.23,3.28-1.59,6.52-1,10-.79,2.82-1.69,7.98-3,10-9.77-.26-2.93-2.15-2.92-2.6.01-.71-1.09-1.27-1.08-1.4.31-3.47,2.67-6.5,3-8h0Z"/>
  <path class="cls-6" d="M300.25,125.29c.27.79-.17,2.76.22,4.23,1.72,6.46.64,10.87,3.78,16.77-.35-.93-.24-13.66,0-15.52.19-1.46.76-3.1,2-1.48v17.99c-.07.09-1.96-.9-1.99-1,1.63,3.06,2.52,6.67,7,4-.78,1.07-1,3.12-3,4-3.96-.97-5.2-5.48-6.01-8.99-1.32-.55-.99,4.13-2.99,1.99-.54-.58,2.55-3.28-1-3.49,3.67-2.26.48-3.75.47-5.02,0-1.01.56-1.98.53-2.48-.12-1.96-1.33-10.57-1-11.01.12-.16,1.44.1,2,0h-.01Z"/>
  <path class="cls-11" d="M272.25,116.29c.07.99-.05,2,0,3-1.62.28-2.67.76-5,1,4.29-2.34.32-1.55.04-2.73-.73-3.08-1.72-6.34-.03-9.27l-3.03-.52,3.02-5.49c1.62,4.52,4.61,8.36,5,14h0Z"/>
  <path class="cls-7" d="M295.25,87.29c.06-.09,1.37.28,1.76-.19,1.1-1.35-1.26-4.64,2.23-3.8-.58,3.43,3.43,4.53,5.01,7-2.11,3.02-4.85,6.75-9,6,.36-1.75-.52-8.25,0-9h0Z"/>
  <path class="cls-11" d="M307.25,113.29l-2.99,4c.32-1.17-2.74-6.75-3.03-6.99-1.96-1.63-1.92,2.95-3.98,1.99l4.51-9.02c3.28.4,5.29,7.09,5.49,10.02Z"/>
  <path class="cls-7" d="M297.25,112.29c2.06.95,2.02-3.62,3.98-1.99.29.24,3.36,5.82,3.03,6.99l2.99-4c.68,10.01-5.16,4.82-10,5l-1-5c.33-.16.62-.79,1-1Z"/>
  <path class="cls-14" d="M309.25,145.29c-2.26-4.31-.44-10.29-1-15,4.84-1.58,4.87,2.98,4,7-.33,1.5-2.69,4.53-3,8Z"/>
  <path class="cls-7" d="M307.25,99.29c.3-.38,3.72,1.44,1-3.99,3.48-.05,3.98,3.44,3.01,5.98l3.99-3.99c-.56,6.12-1.39,3.56-3.65,5.3-1.24.95-1.49,4.35-4.35,2.2.27-1.18-.36-5.03,0-5.49h0Z"/>
  <path class="cls-11" d="M314.25,95.29c.28.06.7,0,1,0-.04.66.06,1.34,0,2l-3.99,3.99c.97-2.54.48-6.03-3.01-5.98,2.72,5.43-.7,3.61-1,3.99-.44-1.79-1.99-5.2-.06-6.56,3.28-2.31,5.25,2.15,7.06,2.56h0Z"/>
  <path class="cls-15" d="M333.25,126.29c.24,8.53.35,18,0,26.51-.05,1.23.76,3.71-1,3.49v-29l-1,.5c.01,11.16,0,22.34,0,33.5h-1c.04-9.4-1.43-25.63,0-34,.27-1.58,1.83-2.49,3-1Z"/>
  <path class="cls-2" d="M250.25,116.29c.01,1.04,1.14,2.62,1.04,3.43-.12,1-1.12-1.26-1.04,2.57.03,1.34-.04,2.64,0,4,.04,1.66-.03,3.33,0,5h-1c-.62-4.2-1.18-6.82-1-11.54.07-1.92-1.03-4.01,2-3.46Z"/>
  <path class="cls-2" d="M258.25,81.29c3.79-.87.99,5.82,5,5-.52.97-.53,2.85-1,4-2.23-1.85-2.49-3.34-4-5,.06-1.33-.09-2.68,0-4Z"/>
  <path class="cls-12" d="M333.25,186.29h-1l.5-22.01c1.1,0,.49,19.82.5,22.01Z"/>
  <path class="cls-12" d="M300.25,125.29c-.56.09-1.87-.17-2,0-.33.44.87,9.05,1,11.01-3.05.56-1.91-1.53-2-3.45-.15-2.92.57-5.79-1-8.54,1.77.12,3.42-.72,4,.99h0Z"/>
  <path class="cls-11" d="M273.25,153.29c-1.67-5.37-1.68-13.55,0-19,.48,5.96-.02,12.89,0,19Z"/>
  <path class="cls-11" d="M313.25,113.28l1.01-4.99c6.25-.36,4.27,5.23-1.01,4.99Z"/>
  <path class="cls-15" d="M274.25,116.29c-.25.65.17,2.13,0,3-.07-.07-1.56-.08-2,0-.05-1,.07-2.01,0-3h2Z"/>
  <path class="cls-14" d="M309.24,201.28c-.35.68-1.7-.59-.98-1.99.35-.68,1.7.59.98,1.99Z"/>
  <path class="cls-3" d="M236.25,3.29l-11,17c-2.9-.84-1.68,3.18-3.5,4-.4.18-.75-4.77-7.23-2.67-3.7,1.2-1.16,6.11-1.38,7.1-.34,1.55-11.65,2.47-14.35,2.62-9.59.51-22.12-1.35-31.09-.09-2.54.35-3.77,1.86-6.89,2.13-3.69.32-10.44-2.16-10.99-2.04-1.13.26-3.7,10.64-3.57-2.05-12.39,1.93-4.13-1.31-2.3-4.29.45-.74.2-1.57.3-1.71,4.8-.39,6-4.68,8.42-7.61,1.1-1.33,3.44-2.23,3.56-2.41,2.22-3.24-6.09-.21-3.98-4.98.35-.2.63-.82,1-1,.78-.39,6.63-2.93,7-3,2.27-.44,17.26-.5,19.45-.07,1.2.24-.11,2.9,1.1,3.14,4.18.82,10.91-.73,15.45-.07,3.46-2.62-7.56-1.96-8.51-1.99-1.22-.05-3.72.76-3.48-.99,5.83-.25,11.74.29,17.57.03,1.29-.06,2.29-1.04,2.42-1.04,10.55-.37,21.51.6,32,0h0Z"/>
  <path class="cls-8" d="M152.25,8.29c-2.11,4.77,6.2,1.74,3.98,4.98-.12.18-2.46,1.08-3.56,2.41-2.42,2.93-3.62,7.22-8.42,7.61-.1.14.15.98-.3,1.71-1.83,2.97-10.09,6.21,2.3,4.29-.13,12.68,2.44,2.31,3.57,2.05.55-.13,7.3,2.36,10.99,2.04,3.12-.27,4.34-1.78,6.89-2.13,8.98-1.25,21.5.6,31.09.09,2.7-.14,14.01-1.06,14.35-2.62.22-.99-2.32-5.9,1.38-7.1,6.47-2.1,6.83,2.85,7.23,2.67,1.82-.82.6-4.84,3.5-4-.46,2.07-1.09,6.78-1.95,8.36-.72,1.31-2.75.38-3.05.65-.34.31,1.22,5.39,0,8.99l-3.44,2.08-80.56-.08c-4.25-1.11-1.11-.95-.28-3.78,2.29-7.83,3.47-7.91,6.28-13.22.66-.04,1.34.05,2,0,.12-.17-.2-1.03.3-1.72,2.58-3.51,9.17-4.06,2.7-8.28,2.03-3.08,1.54-3,5-5h0Z"/>
  <path class="cls-3" d="M143.25,5.29c-1.1.81-2.95,2.89-4,4h-7c-2.66,0-5.35-.09-8,0-6.17.2-8.33-1.86-10.02,5.48,2.1,2.35,1.84-1.34,2.66-1.5,2.18-.43,5.04.3,7.36.02.61,3.94,3.17,3.67,6,4,.47.05.92.51,1,1-.83,1.36-1.22,5.24-2,7-1.18,2.65-3.44,5.84-4,8-2.61-.85-4.45,3.88-7,1.99-1.81-1.34,1.59-2.08,1.96-2.77.25-.48-.12-1.79.37-2.91.39-.88,3.2-2.23,1.66-6.31-4.38-.34-3.23,7.14-4.97,8.52-2.54,2.02-20.94,4.16-17.03-4.52-2.99-.99-1.13,2.44-3.36,1.92-4.03-.94-4.36-3.74-4.64-3.92v-1c1.88-2.52,5.1,1.99,5.99,1,1.92-2.14-3.59-5.33-1.99-8,.69-.97.59-2.66,1.37-3.63,9.92-12.3,25.75-9.68,40.17-9.4,1.9.04,3.91-.46,5.46,1.03h0Z"/>
  <path class="cls-8" d="M238.25,19.29c-.45,4,6.45,1.42,3.42,6.02-2.64.3-5.82-1.32-6.4,2.5-.42,2.75,2.25.8,2.89,1.53,1.2,1.38-2.41,5.14,4.09,3.96v-5.01c2.87-.64,5.79.97,8.4.9,7.4-.18,7.2-1.46,15.16.05s5.25-3.07,6.52-3.94c.31-.22,3.85,1.44,5.93-3.01-.53,1.5-.39,5.02-1,7s-1.36,3.97-2,6c-.17.53-1.8,1.6-2,3-.04.31-.02.69,0,1-.61-.19-1.05.55-1,1h-12c-3.44-2.53-27,.05-28.01-.99v-6.01c2.23-7.54,2.71-8.03,6.01-14h0Z"/>
  <path class="cls-8" d="M92.25,25.29c.27.18.61,2.98,4.64,3.92,2.23.52.37-2.9,3.36-1.92-3.91,8.68,14.5,6.55,17.03,4.52,1.73-1.38.58-8.87,4.97-8.52,1.53,4.08-1.28,5.43-1.66,6.31-.49,1.12-.12,2.43-.37,2.91-.36.69-3.77,1.43-1.96,2.77,2.55,1.88,4.39-2.85,7-1.99-.15.58.16,1.46,0,2-2.18,5.18-4.12,4.67-9,5l-33-1c-.1-.19.04-.64,0-1-.04-.32,0-.67,0-1,2.57.54,2.05-1.24,2.72-2.73,1.39-3.11,2.57-6.31,4.28-9.27.54.19,1.66-.22,2,0h0Z"/>
  <path class="cls-15" d="M145.25,14.29c-.15,1.86-2.16,7.41-3,9-2.81,5.31-4,5.39-6.28,13.22-.83,2.84-3.97,2.67.28,3.78,13.45,3.53,59.44,1.54,76,1l-80.99-.06c-1.56-2.4,8.34-22.61,10.55-25.89,1.09-1.62,2.58-2.1,3.44-3.05-.04.66.05,1.34,0,2h0Z"/>
  <path class="cls-1" d="M277.25,47.29c2.33.45,2.78,4.8,3.01,5,2.24,1.89,1.5-2.49,2.97-1.99-.31,4.38,2.11,6.57,3.76,9.73.39.75.06,1.93.25,2.26-8.38.76-4.69-.39-6.73-4.78-2.39-5.13-11.07-7.32-16.27-7.22-.94.02-2.21-.17-3,0-1.04-1.66-3.8-1-5.49-1.02-5.1-.05-12.84-.66-17.51.02v-2c.9.05,2.48.99,4.43,1.04,6.32.18,30.42.94,34.57-1.04h0Z"/>
  <path class="cls-14" d="M250.25,2.29c-.04,2.19-2.36,3.36-4,5-5.41,5.4-4.75,6.11-8,12s-3.78,6.46-6,14c-.51,1.74-2.85,4.16-2,7h-3c-1.13-3.48,7.67-23.44,10.18-27.32,1.67-2.59,8.7-10.85,11.33-11.28.61-.1,1.29.63,1.5.6h0Z"/>
  <path class="cls-14" d="M220.25,38.29c-1.59,4.71-3.43,2.85-8,3-16.56.54-62.55,2.53-76-1l80.56.08,3.44-2.08Z"/>
  <path class="cls-15" d="M183.25,47.29c1.67.01,3.33-.02,5,0v2c-1.71.04-2.84,1-3,1-.67.02-1.33-.02-2,0h-1c-3.36.12-12.99.68-15.45.07-1.29-.32.65-3.96-2.55-3.07,5.9,0,12.6-.04,19,0Z"/>
  <path class="cls-11" d="M227.25,46.29c-1.95-.51-3.47.64-5,1-4.07.96-5.93.83-10,1-7.45-1.91-16.2-.9-24-1-1.67-.02-3.33.01-5,0,1.04-1.66,3.79-1,5.49-1.02,9.68-.12,19.37.14,29.06.06,4.3-.04,4.46-1.69,9.46-.04h-.01Z"/>
  <path class="cls-1" d="M230.25,40.29h42c0,.06,1.85.83.5,1.01-11.85.64-23.54,0-35.5,0h-6c-1.18-.27-3.67.7-4-1h3Z"/>
  <path class="cls-15" d="M83.25,38.29c.04.36-.1.81,0,1,.27.52.05.8,1,1l39,1c-3.23,2.8-33.27-.04-39.5,1-2.32.23-4.51-4.5-.5-4Z"/>
  <path class="cls-12" d="M139.25,9.29c-1.32,1.41-4.09,5.2-5,7-.64.66-2.67,1.47-3,2-.08-.49-.53-.95-1-1,.14-2.89-1.16-5.5,1.97-6.67l.03-1.33h7Z"/>
  <path class="cls-14" d="M123.25,41.29l-39-1c5.43,1.12,25.53.44,32,0,4.88-.33,6.82.18,9-5-.59,1.97.03,4.24-2,6Z"/>
  <path class="cls-1" d="M90.25,25.29c-1.72,2.95-2.89,6.15-4.28,9.27-.67,1.49-.14,3.27-2.72,2.73.03-2.39,2.73-12.04,4.01-13,1.05-.79,2.44.8,2.99,1Z"/>
  <path class="cls-11" d="M105.25,46.29v1h-4c-7.23-.03-14.84.38-22,0-.33-.02-.67.03-1,0,1.04-1.66,3.79-1,5.49-1.02,7.15-.09,14.37-.1,21.51.02Z"/>
  <path class="cls-8" d="M96.25,17.29c-1.59,2.67,3.92,5.86,1.99,8-.9,1-4.12-3.52-5.99-1,.03-.33-.05-.67,0-1,.06-.42-.17-.91.03-1.33.64-1.36,3.76-4.38,3.97-4.67Z"/>
  <path class="cls-11" d="M163.25,47.29h-3c-4.32-.03-8.68.03-13,0h-1c-2-.01-4,.02-6,0-.67,0-1.33.01-2,0,5.82-1.77,13.31-1.08,19.51-1.02,1.69.02,4.45-.64,5.49,1.02Z"/>
  <path class="cls-15" d="M227.25,46.29c.97.32,1.87,1.05,3,1-.15.22.31,1.44-.15,1.8-.91.73-3.78-.17-5.18.39l-.67.81h-1c-.11-.48-.53-.93-1-1v-2c1.53-.36,3.05-1.51,5-1h0Z"/>
  <path class="cls-1" d="M153.25,7.29c-.37.18-.65.8-1,1-3.46,2-2.97,1.92-5,5-.58.88-.84,1.18-2,1,.05-.66-.04-1.34,0-2,.4-.45.4-2.41,1.88-3.59,1.79-1.43,3.99-1.02,5.12-2.41l1,1Z"/>
  <path class="cls-12" d="M276.25,38.29l-1-3c.64-2.03,1.4-4.03,2-6,3.08,3.31.1,6.4-1,9Z"/>
  <path class="cls-12" d="M276.25,38.29c-.44,1.03.31,3.05-1.51,4-.35.15-1.47-2.66-1.49-3-.02-.31-.04-.69,0-1h3Z"/>
  <path class="cls-12" d="M118.25,46.29c.4,3.51-.84,1.08-3.46.97-3.16-.14-6.38.05-9.54.03v-1c4.27.07,8.55-.09,13,0Z"/>
  <path class="cls-6" d="M236.25,50.29c-3.99-.08-8.01,0-12,0l.67-.81c1.4-.56,4.27.34,5.18-.39.45-.36,0-1.58.15-1.8.07-.11.65.06,1,0l5,3h0Z"/>
  <path class="cls-14" d="M134.25,16.29c-1.47,2.92-2,9.32-5,9,.78-1.76,1.17-5.64,2-7,.33-.53,2.36-1.34,3-2Z"/>
  <path class="cls-15" d="M238.25,47.29v2c-.47.07-.89.52-1,1h-1l-5-3c1.78-.29,5.05-.11,7,0Z"/>
  <path class="cls-12" d="M237.25,41.29c-1.74,2.6-4.47.35-6,0h6Z"/>
  <path class="cls-14" d="M209.25,190.29c.04.34,1.67,1.38,2,6,.16,2.15-.13,4.35-.03,6.52.12,2.64,2.53,3.89-.97,3.48-.19-1.96.14-4.02,0-6-8.92,2.51-5.99,18.16-5.99,26-4.84.28-9.26-.33-14-1,.14-.59-.14-1.41,0-2,2.29-4.18,4.03-9.35,5-14,.41-1.95.84-4.02,1-6,1.96-1.35,2.61-10.58,3.03-10.96.23-.21,4.02-.49,5.97-1.04,1.23-.34,2.41-1.34,4-1h0Z"/>
  <path class="cls-6" d="M203.25,228.29c-.32,2.07.46,5.17,0,7-4.48.73-12.04-1.01-16,0,.33-2.66,1.46-5.55,2-8,3.82,1.97,9.52.82,14,1Z"/>
  <path class="cls-12" d="M115.25,197.29c.18.28.71,1.43,1,2,.17.34.86.64,1,1,1.86,4.9,2.53,8.62,2.01,13.99l.99-4.99c2.34-.27,5.05-.87,7.37-.86,4.77,0,5.59,3.66,6.64-4.13l2.97,1.51c-1.44-.61-1.56-3.04-1.98-3.51,1.93-1.07,3.66-2.12,6-2,6.53.34,4.86,2.03,5.09,5.37.06.88.89,1.45.91,1.63.02.27-1.24,1.46-.79,1.84.45.38,1.68,0,1.79.16,1.22,1.68-.39,17-2,20-2.1,3.9-3.03.71-6.55.04-8.44-1.6-12.62-3.6-20.7-8.08-1.31-.72.27-1.97-3.75-1.96.37-7.61-.02-14.66-2-22h2ZM142.24,228.29c1.52-1.6.84-14.03,1-17l-2.93,15.57c-.79,1.73,1.51,1.87,1.93,1.42h0Z"/>
  <path class="cls-12" d="M151.25,205.29v1c-.18,1.64,1.7,2.99,2,4-1.5.69-.97,2.68-1,4-.09,3.65.16,7.36,0,11,0,.33,0,.67,0,1l-2,1c-1.03-6.31.15-10.21-2-18-.24-.85-.97-1.81-1-2-.16-.91.09-2.03,0-2.99,1.54-.55,3.05.88,3.99.99h0Z"/>
  <path class="cls-14" d="M150.25,192.29c.43.06,4.99,1.3,5.04,1.56l-.04,11.44c-1.31-.1-2.7.15-4,0-.94-.11-2.46-1.54-3.99-.99.09.96-.16,2.08,0,2.99-.02-.18-.84-.75-.91-1.63-.24-3.34,1.44-5.04-5.09-5.37.13-2.68,2.42-5.8-1-7,1.91.06,6.24-1.51,10-1h0Z"/>
  <path class="cls-14" d="M148.25,209.29c-.11-.15-1.33.23-1.79-.16s.82-1.57.79-1.84c.03.19.76,1.15,1,2Z"/>
  <path class="cls-14" d="M150.25,227.29c.23,1.38.12,2.78,1,4v1c-3.64.52-3.73.06-5-3,1.61-3,3.22-18.32,2-20,2.15,7.79.97,11.69,2,18Z"/>
  <path class="cls-1" d="M204.25,226.29v2c-.33-.02-.67.01-1,0-4.48-.18-10.18.97-14-1,.21-.94.93-1.68,1-2,4.74.67,9.16,1.28,14,1Z"/>
  <path class="cls-1" d="M195.25,209.29c-.97,4.65-2.71,9.82-5,14,.87-3.68,1.24-7,2.54-11.01.52-1.62-.26-3.56,2.46-2.99h0Z"/>
  <path class="cls-1" d="M153.25,225.29c-.47-3.47,1.17-8.29-1-11,.03-1.32-.5-3.31,1-4,1.28,4.35,1.99,10.81,0,15Z"/>
  <path class="cls-6" d="M153.25,225.29h-1c.16-3.64-.09-7.35,0-11,2.17,2.71.53,7.53,1,11Z"/>
  <path class="cls-1" d="M165.62,211.9c2.23,1.92,4.78,3.47,6.61,5.9l-9.49-6.5-1-3c1.98.68,2.72,2.61,3.88,3.61h0Z"/>
  <polygon class="cls-1" points="177.25 231.28 175.26 231.28 175.26 225.3 176.24 225.3 177.25 231.28"/>
  <path class="cls-6" d="M152.25,226.29c-.05,1.74-.99,4.17-1,5-.88-1.22-.77-2.62-1-4l2-1Z"/>
  <path class="cls-1" d="M160.24,207.3c.68.35-.59,1.7-1.99.98-.68-.35.59-1.7,1.99-.98Z"/>
  <path class="cls-1" d="M174.24,223.28c-.35.68-1.7-.59-.98-1.99.35-.68,1.7.59.98,1.99Z"/>
  <path class="cls-1" d="M150.25,192.29c7.47-.62,14.76-3.65,21.85-5.48,2.12-.55,6.53-.49,8.51-.83,6.62-1.13,11.74-3.75,19.21-2.78,2.25.29,1.22,1.95,1.42,2.09l-1,6h5c-1.95.55-5.73.84-5.97,1.04-.42.38-1.07,9.61-3.03,10.96.47-5.75.32-8.14-5.93-9.57-4.55-1.04-12.8,1.17-17.35,2.79-1.93.69-16.14,7.16-16.68,7.91-.5.69,1.41,2.15.47,2.85l-5.51-.98v-1c1.3.15,2.69-.09,4,0l.04-11.44c-.05-.26-4.61-1.5-5.04-1.56h0Z"/>
  <path class="cls-1" d="M172.75,219.29c.65.33.65.67,0,1v-1Z"/>
  <path class="cls-8" d="M204.25,226.29c0-7.83-2.93-23.48,5.99-26,.15,1.97-.18,4.03,0,6,.06.66-.06,1.34,0,2v3c.04.64.97,1.89,1,3-3.47,7.52,3.6,11.38-7,12h0Z"/>
  <path class="cls-1" d="M250.25,131.29c2.12,3.27,10.99,2.27,15,2v30c0,17.77-.97,37-.09,54.58.11,2.25,4.36.9.09,3.42-.15-3.13-.94-6.98-1-11v-1c-.03-2.33.01-4.67,0-7-.05-7.65.04-15.35,0-23-.07-14.99.05-30.02,0-45.01h-14.01c-.04-.33-.79-1.58-1-2.99h1.01Z"/>
  <path class="cls-10" d="M265.25,221.29c.23,4.84,1.2,9.9-5,10v-2c0-6.39-1.86-14.98,4-19,.06,4.02.85,7.87,1,11Z"/>
  <path class="cls-1" d="M220.25,188.29v41c-3.68-1.18-1.29-32.58-2-38-.07-.56-.8-1.36-1-2,.24-.02,1.39-.87,3-1Z"/>
  <path class="cls-14" d="M225.25,227.29c6.56-.03,12.84,1.53,19,2v1c-8.02-.23-16.01-.2-24-1v-2h5Z"/>
  <path class="cls-6" d="M209.25,190.29c-.07-.6,1.6-3.53,1.01-4.99h.98c.15,3.49-1.12,3.8,2.01,3.99,1.24.08,2.78.12,4,0,.2.64.93,1.44,1,2-2.69,1.28-3.83,4.79-7,5-.33-4.62-1.96-5.66-2-6h0Z"/>
  <path class="cls-11" d="M265.25,133.29c.17,0,1.02-1.45,1.99-1,2.72,4.85-.8,4.96-.98,5.68-1.5,6.02,1.9,16.18-1.01,22.33v-27h0Z"/>
  <path class="cls-12" d="M211.25,214.29c.07,2.6.42,13.9-1.09,14.92-2.02.65-4.13-.82-5.91-.92v-2c10.6-.62,3.53-4.48,7-12Z"/>
  <path class="cls-1" d="M260.25,229.29v2c-4.42.07-10.94-.85-16-1v-1c5.26.4,10.72-.29,16,0Z"/>
  <path class="cls-14" d="M210.25,211.29v-3c.17,1.8-.04,2.4,0,3Z"/>
  <path class="cls-6" d="M273.25,224.29c-1.31-.48-.95-1.9-1-3,1.31.48.95,1.9,1,3Z"/>
  <path class="cls-6" d="M272.25,215.29c.05-.74,1-.93,1-1l-1,1Z"/>
  <path class="cls-10" d="M280.25,5.29c3.02,5.2-6.89,5.06-7.95,3.93-.14-.15-.2-3.79-.06-3.93.32-.34,6.54.22,8.01,0Z"/>
  <path class="cls-15" d="M89.25,188.29c-.71,2.84,1.87,1.48,3.51,2.98l-.51-2.98c.55.02,1.76.13,2,0,.37.63.59,1.4,1,2,2.49,3.65,4.28,6.08,4.01,11l.99-1c.13.9.89,1.76,1,4-.23,2.44-4.15,1.64-4.87.87-.83-.87,1.22-11.48-3.12-12.87-.02,3.17,3.6,10.2,1.86,12.87-.46.71-13.77,4.93-15.86,6.13l-2.01-17c.07-.36,1.6-.85,1.74-1.22.16-.43-.77-.73-.74-.78,1.67-2.69,2.7-4.36,6.01-3.01l-1.02-1.99c2.08-.44,4.17.9,6.01.99h0Z"/>
  <path class="cls-8" d="M74.25,169.29c4.1-1.11,3.84,1.58,6.24,3.24,1.15.8,3.46,1.07,4.14,1.67,1.16,1.02.41,2.86.63,3.07.36.36,2.85-.69,4.09-.43,3.33.67,9.47,3.43,12.9,4.45v2l-2.02,3.01c-4.01-2.38-4.7,1.32-5.98,1.99-.24.13-1.45.02-2,0-1.16-.04-2.5.03-3,0-1.84-.09-3.93-1.44-6.01-.99l1.02,1.99c-3.3-1.35-4.34.32-6.01,3.01-1.44.77-2.96.03-4,0-.13-7.65.18-15.35,0-23h0Z"/>
  <path class="cls-1" d="M73.25,129.29v25c-.07,2.55,1.01,4.86,1,6v4c0,1.7-.04,3.26,0,5,.18,7.65-.13,15.35,0,23-.66-.02-1.35.06-2,0v-4c0-8.98.1-18.02,0-27l-1-2c-.09-7.03,1.72-14.33,1-21l-1-1c-.2-.83.14-2.07,0-3,.31-1.11.79-2.2.79-3.38l-.79-.62c.68-.64,1.2-.72,2-1Z"/>
  <path class="cls-15" d="M81.25,129.29c-.95,6.61-2.24,2.69-4.48,3-1.36.19-.69,2.24-.94,2.72-.11.23-1.42.27-1.55.96-.81,4.29.21,11.12,0,15.9-.05,1.3-1.04,2.29-1.04,2.42v-25c4.9-1.68,4.2-.44,8,0h.01Z"/>
  <path class="cls-11" d="M65.25,163.29v-39c1.66,1.04,1,3.79,1.02,5.49.1,7.83,1.25,27.39-1.02,33.51Z"/>
  <path class="cls-15" d="M71.25,134.29c-.29,1.05-1.61,2.24-1.01,4-3.51-1.57-1.07-6.06,1.01-8l.79.62c0,1.18-.48,2.27-.79,3.38Z"/>
  <path class="cls-6" d="M72.25,192.29c-1.31-.13-2.68.1-3.99,0-.43-1.64,1.72-.45,2.01-1.63,1.34-5.43-1.92-5.52-2.04-5.85-.59-1.67-.16-3.09,2.01-2.51l2.01,6s0,4,0,4Z"/>
  <path class="cls-15" d="M72.25,161.29c0-.11-.98-.22-1-2l1,2Z"/>
  <path class="cls-15" d="M72.25,138.29c0-.07-.8-.2-1-1l1,1Z"/>
  <path class="cls-14" d="M294.25,17.29c3.76-3.6,6.84-10.69,12.49-11.08,1.76-.12,3.23.37,4.79,1.1.53.25,8.2,7.72,8.42,8.27.32.8.18,1.33.3,1.71,1.26,4.06,1.78,4.31,3.37,8.11,1.05,2.52,1.74,6.18,2.66,8.89l1.96-1.01c-1.46,4.12.09,6.45,1.01,10.01l2,10c.02.33-.01.67,0,1,.06,1.89-.71,4.9,1,6v1c.15,16.1-.35,29.87-2,45-3.87-.66-3.66-4.32-5.53-7-4.82-6.9-10.74-11.44-14.35-18.52-1.56-3.07-5.69-5.27-5.92-5.68-.74-1.33.3-3.73-.33-4.68-.36-.55-2.57-.34-3.63-1.44-.27-.28-3.54-5.5-4.16-6.49-.7-1.11-.44-3.32-1.35-4.01-1.49-1.12-3.72,1.69-2.75-5.17l-1.48,1.99c-3.39-3.45-5.66-5.29-5.5-10,.08-2.23.01-4.51.83-6.64.54-1.41,1.97-1.37,2.13-2.07.44-1.9-.18-4.28.03-6.29.37-.99.58-1.99,1-3l1.98-2.51-.98-.49c.32-.77.75-1.4,1-2,1.37-2.01,3.84-1.96,3-5h.01Z"/>
  <path class="cls-1" d="M332.25,61.29c1.45,3.03,1.35,8.05,1.44,11.5.23,8.06.58,19.04.18,26.83-.06,1.18-.58,10.85-3.62,7.67.03-.33-.04-.67,0-1,1.65-15.13,2.15-28.9,2-45Z"/>
  <path class="cls-1" d="M293.25,69.29l4.93.05,3.07,8.95c-1.35-.29-5.59.37-6,0,1.72-5.75.62-5.29-2-8.99h0Z"/>
  <path class="cls-1" d="M288.25,30.29c-.21,2,.4,4.39-.03,6.29-.16.71-1.59.67-2.13,2.07-.82,2.13-.76,4.41-.83,6.64-2.96.51-2.14-1.33-1.77-3.25.83-4.28,3.37-7.97,4.77-11.75h-.01Z"/>
  <path class="cls-1" d="M294.25,17.29c.84,3.04-1.63,2.99-3,5,.56-1.32.47-3.85,1.26-4.77.44-.52,1.61-.1,1.74-.23Z"/>
  <path class="cls-1" d="M289.25,27.29c.37-.89.56-1.96,1-3l.98.49-1.98,2.51Z"/>
  <path class="cls-15" d="M113.25,197.29c1.98,7.34,2.37,14.39,2,22-4.72.01-2.29.69-3.68,4.8s-3.28,8.48-5.32,12.2c-.46-.25-2.04.53-2-.49,3.58-3.46,1.16-9.03,3.25-13.79,1.12-2.55,5.31-3.52,5.94-5.06,1.49-3.62.88-6.26-.19-9.66.2-3.42.21-7.19-2-10h2Z"/>
  <path class="cls-5" d="M100.25,190.29c.1.09-.29,1.31.23,1.73.34.28,5.76,1.97,7.77,3.27,1.08.69,1.99.72,3,2,2.21,2.81,2.2,6.58,2,10-.2-.64-1.15-3.01-1.5-3.01l-.51,5.01c-2.01.22-.04-2.47-1.98-1.99-.74,5.6-4.64-1.34-8.01,0,.02-.99.05-2.01,0-3-.11-2.24-.87-3.1-1-4-.48-3.44-1.63-6.88-1-10,.36.06.86-.12,1,0h0Z"/>
  <path class="cls-6" d="M336.25,95.29c-.03.74.32,3.08-1,1.5.57-4.22-1.25-9.72,1-13.5.02,3.97.16,8.03,0,12Z"/>
  <path class="cls-6" d="M336.25,80.29c-1.6-1.26-1.15-4.95-1-7,1.74,1.36.98,4.81,1,7Z"/>
  <path class="cls-1" d="M332.25,60.29c-1.71-1.1-.94-4.11-1-6,1.68,1.09.97,4.11,1,6Z"/>
  <path class="cls-1" d="M331.25,53.29l-2-10c1.08,4.16,1.67,5.21,2,10Z"/>
  <path class="cls-6" d="M336.25,69.29c.23.85-.96,1.77-1,2v-3l1,1Z"/>
  <path class="cls-11" d="M95.25,104.29c.09.65-.02,1.34,0,2-3.06.6-3.05-2.56,0-2Z"/>
  <path class="cls-6" d="M140.25,49.29c6.71-.13,13.81-.27,20.51,0,1.22.05,3.72-.75,3.48.99-9.65.04-19.34-.02-28.99.01.84-1.6,3.39-.97,5-1h0Z"/>
  <path class="cls-1" d="M101.25,47.29c-6.45,1.67-15.55,1.67-22,0,7.16.38,14.77-.03,22,0Z"/>
  <path class="cls-2" d="M248.25,144.29c.28,2.58.14,6.32,0,9-.15,2.81-.37,6.59-1.07,9.24-.06.23-1.14,1.3-1.93,3.76-.98,3.05-1.2,2.74-2,7-.05.26-.77,1.12-1,2-.08.31.06.68,0,1v1c-3.13-1.88-2.91-5.88-3-9,0-.09,1.1.13,1.02-1.54-.32-6.93-2.52-14.36-.02-21.46.29-.13.93.15,1,0,2.27-5,.42-11.61.99-16.99l-.99,9.99c-1.86,2.14-2.53,8.06-3,3,.1-1.54-.24-3.59,0-6,.06-.65-.08-1.35,0-2,.33-2.79-.08-6.64,0-7,.04-.18,1.29-.6,2-3,.09-.31-.1-.71,0-1,3.9.55,3.06-.54,3-4,.26-.13.7.12,1,0,1.92-.76,1.76-2.7,3-4-.27,6.65-1.14,13.2-1.56,19.48-.17,2.52,2.19,7.14,2.56,10.52ZM242.24,153.28c.72-1.4-.63-2.67-.98-1.99-.72,1.4.63,2.67.98,1.99ZM242.24,169.29v-3.99h-.98v3.99h.98Z"/>
  <path class="cls-10" d="M250.25,134.29h14.01c.04,14.98-.08,30.01,0,45-5.94,1.24-4.13,9.28-4,14,3.4.17,1.89,2.28,2,6-3.15.87-1.93-3.19-2-6-1.33-.07-2.68.07-4,0,.21-2-.41-4.44.03-6.32.19-.81,1.81-.26,2.06-2.12.96-7.38-.87-16.92-.09-24.57l-1.92.97c-.91-3.58-3.23-8.94-8.07-7.96.14-2.68.28-6.42,0-9h2c.46,2.96.16,5.01,2.02,8l1.98-1c1.42,1.36,2.48,2.41,3.87,4.84,1.07,1.86,1.35,5.81,4.13,5.16v-26c-2.39,1.06-4.89-.52-7.31,0-.67.14-1.02,3.18-3.69,2h-1c.15-.41.08-2.36,0-3h-.02Z"/>
  <path class="cls-10" d="M223.25,188.29c-1.08,4-1.88,16.56-.98,20.31.18.75,1.79.61,1.96,1.37.36,1.61-.34,3.23.31,5.07.2.58,3.49,1.72,3.77,3.7.49,3.51.97,7.75-3.06,8.54h-5v-39c.99-.08,2.01.05,3,0h0Z"/>
  <path class="cls-12" d="M264.25,179.29c.04,7.65-.05,15.35,0,23l-2-1c-.02-.67.02-1.33,0-2-.11-3.72,1.4-5.83-2-6-.13-4.72-1.94-12.76,4-14Z"/>
  <path class="cls-11" d="M240.25,145.29c-2.5,7.1-.3,14.53.02,21.46.08,1.67-1.02,1.45-1.02,1.54-.39-1.54-1.79-3.6-2-5-.17-1.14-.04-2.77,0-4,0-.13.98-1.13,1.04-2.42.09-2-.39-11.12-.04-11.59.19-.25,1.54.21,2,0h0Z"/>
  <path class="cls-14" d="M238.25,141.29c0,.18-.98,1.15-1.03,2.43-.21,5.17.21,10.4.03,15.57-.04,1.23-.17,2.86,0,4-1.66-1.04-1-3.79-1.02-5.49-.09-7.5-.46-15.17,1.02-22.51h1c-.24,2.41.1,4.46,0,6Z"/>
  <path class="cls-14" d="M245.25,166.29c3.29-1.1,1.41,4.13,1,7h-3c.8-4.26,1.02-3.95,2-7Z"/>
  <path class="cls-10" d="M246.25,173.29c-.17,1.22.32,2.64-.1,3.88-1.49.24-2.39,1.03-3.9.12v-1l.98-.5-.98-.5c.23-.88.95-1.74,1-2h3Z"/>
  <path class="cls-10" d="M264.25,202.29c.01,2.33-.03,4.67,0,7-3.28.99-1.92-4.96-2-8l2,1Z"/>
  <path class="cls-1" d="M103.25,179.29c10.51,6.42,24.6,13.62,37,14,3.42,1.2,1.13,4.32,1,7-2.34-.12-4.07.93-6,2-2.82-3.18-10.71-2-15-2h-1c-.96-3.15-2.89-5.21-3-1-.29-.57-.82-1.72-1-2-.27-.41-.11-1.52-.93-2.53-1.56-1.93-7.3-5.7-10.07-5.47-.94-3.28-1.04-4.59-1-8v-2Z"/>
  <path class="cls-1" d="M119.25,200.29c.09.3-.08.68,0,1,.62,2.56,1.05,5.34,1,8l-.99,4.99c.52-5.37-.15-9.1-2.01-13.99h2Z"/>
  <path class="cls-5" d="M74.25,164.29c2.2.18,5.21.33,7.2,1.1,7.54,2.92,14.9,9.69,21.8,13.9v2h-1c-3.42-1.01-9.57-3.78-12.9-4.45-1.24-.25-3.73.79-4.09.43-.21-.21.53-2.05-.63-3.07-.68-.6-2.99-.88-4.14-1.67-2.4-1.66-2.14-4.35-6.24-3.24-.04-1.74,0-3.3,0-5h0Z"/>
  <path class="cls-5" d="M198.24,175.3l-15.99,2.98c-.47-2.86.6-1.66,2.31-2.13,4.57-1.26,8.99-.87,13.68-.85h0Z"/>
  <path class="cls-5" d="M80.25,155.29c.28,1.1-.03,1.89.05,1.94.5.3,1.42-.08,1.95.06,1.8.5,5.79.26,4.99,3-2.79-1.62-5.62-.77-8.51-.99s-.24-1.35-.48-3.01c.54-.21,1.17-1.02,2-1Z"/>
  <path class="cls-11" d="M136.25,70.29c.95-2.75,2.76-6.48,2.03-9.3-.27-1.03-4.54-1.95-4.05-4.69l-.98,1.44-1-2.45c.2-.3-.64-1.47.71-1.99,4.06-1.59,14.05-1.91,15.14,3.64.35,1.79-8.55,13.21-11.84,13.36h-.01Z"/>
  <path class="cls-7" d="M191.25,52.29c-2.92,3.73,2.49,3.93,3.51,5.98,1.21,2.42-1.11,6.56,2.49,6.02-1.26,1.67-2.05,4.55-3,6-.48.73-2.73,3.46-2.99,2.99.84-2.41-1.91-3.77-2.01-3.99-.88-1.97-2.41-10.22-4-11-.23-.11-.65.08-1,0,1.44-3.22,1.58-4.66,5-6,.48-.19,1.43.16,2,0Z"/>
  <path class="cls-15" d="M170.25,58.29c.61-.08,1.37-.03,2,0,.18,0,.79.87,1.58.93,3.69.28,7.26-.15,10.89,1.09l.52-2.02c1.59.78,3.12,9.03,4,11-3.6,1.07-2.82-1.86-3-2,.73-2.68-.87-2.74-2-4-.18-.2.6-1.76-.6-2.05-2.25-.53-9.47-.3-11.4,1.05-2-.04-4,.03-6,0,1.02-1.11-.15-3.48,4-4h0Z"/>
  <path class="cls-7" d="M116.25,56.29c2.82,5.76,2.71,2.65,8,4-.04,5.19-2.01,1.84-3.04,3.64-1.2,2.11.27,8.06-4.28,4.41-2.29-1.84-2.14-9.73-.68-12.05h0Z"/>
  <path class="cls-12" d="M188.25,49.29c9.37-.2,25.38-1.25,34,0,.47.07.89.52,1,1-9.03-.01-17.25-.02-26,1-2.65.31-3.2.2-6,1-.57.16-1.52-.19-2,0l-4-2c.16,0,1.29-.96,3-1Z"/>
  <path class="cls-11" d="M124.25,60.29c-5.29-1.35-5.18,1.76-8-4,2.73-4.36,8.04-1.81,8,4Z"/>
  <path class="cls-9" d="M184.25,58.29c.35.08.77-.11,1,0l-.52,2.02c-3.63-1.24-7.2-.81-10.89-1.09-.79-.06-1.4-.92-1.58-.93,4.04-1.11,7.93-.94,12,0h0Z"/>
  <path class="cls-2" d="M154.25,57.29c3.85-.73,1.89,7.11,1,10-2.12-1.15-1.46-7.99-1-10Z"/>
  <path class="cls-6" d="M162.25,47.29l-.51.99-1.49-.99h2Z"/>
  <path class="cls-6" d="M146.25,47.29h1l-.5.98-.5-.98Z"/>
  <path class="cls-12" d="M183.25,50.29c-.33.01-.67-.01-1,0h1Z"/>
  <path class="cls-12" d="M196.25,70.29c8.27-1.05,3.68,1.03,8.45,3.12,1.46.64,3.24.15,3.56.36,1.65,1.1-.63,2.95.4,4.57.61.95,2.17.67,2.59.96,13.34,9.14,14.99,25.28,22,39-3.94-1.8-5.89-6.45-8.42-10.13-1.38-2.02-.18-5.78-4.58-.87v-3l3.01-.5c0-1.09-2.2-.2-3.01-.5.85-2.35,2.05-2.31,2-2.48-.11-.43-3.92-5.03-4.81-6.17-1.07-1.35-.88-3.26-3.19-1.35-.43-.86-1.47-1.49-2-3-.25-.7.17-2.1,0-3.01l-2-.48,2.01-1c-5.23-4.55-8.43-12.1-16-14.5v-1.02Z"/>
  <path class="cls-15" d="M199.25,63.29c-.69,2.77,1.58,1.69,2,2,1.18.88,9.57,8.68,10.07,9.42.94,1.39,1.84,3.56-.07,4.58-.41-.28-1.98,0-2.59-.96-1.04-1.62,1.24-3.47-.4-4.57-.31-.21-2.1.28-3.56-.36-4.77-2.09-.18-4.16-8.45-3.12-.65.08-1.34-.06-2,0,.95-1.45,1.74-4.33,3-6,.3-.39,1.64-.6,2-1h0Z"/>
  <path class="cls-5" d="M172.25,62.29c4.14.09,7.92.7,12,1,1.13,1.26,2.73,1.32,2,4-3.27-2.66-17.78-1.49-22-3,.73-.85,1.42-1.37,2-2,2,.03,4-.04,6,0Z"/>
  <path class="cls-7" d="M220.25,109.29c.96,3.68,2.7,4.69,3.94,6.77.61,1.02.64,3.75,1.16,4.13,1.54,1.12,7.09-1.52,7.89-.89.21.17-.22,1.76,0,1.99-3.58.86-7.91-.03-12,0-.26-2.65,1.23-5.74-2-5v-5c.91-.58,1.18-.83,1-2h0Z"/>
  <path class="cls-7" d="M242.25,113.29c.47,1.45,1.69,3.28,2,5-.3.12-.74-.13-1,0-.31.15-1.27-.32-1.83.15-.66.55-.82,2.84-1.17,3.85-.1.29.09.69,0,1h-1c1.23-2.98-2.5-3.37-3-5-.46-1.5-.15-4.34,0-6l5.45,1.97.55-.97Z"/>
  <path class="cls-4" d="M219.25,111.29v10c-.18,0-.98,1.25-2.32,1.06-.24-.03-2.23-3.06-3.68-3.06.1-.15.91.15,1,0,1.46-2.34,1.65-5.79,2.93-7.37.84-1.04,1.8-.46,2.07-.63Z"/>
  <path class="cls-11" d="M220.25,107.29c4.41-4.91,3.2-1.15,4.58.87,2.52,3.68,4.48,8.33,8.42,10.13.82.38,2.07,2.23,3,0,.5,1.63,4.23,2.02,3,5-1.66.06-4.94-.92-6-2-.22-.23.21-1.83,0-1.99-.8-.63-6.35,2.01-7.89.89-.53-.38-.55-3.11-1.16-4.13-1.24-2.08-2.98-3.09-3.94-6.77-.14-.55.11-1.37,0-2h0Z"/>
  <path class="cls-11" d="M219.25,116.29c3.23-.74,1.74,2.35,2,5-.66,0-1.34-.04-2,0v-5Z"/>
  <path class="cls-1" d="M218.25,101.29c.67.89.61,1.49,2,2-1.2,3.33-.31,2.17,0,4,.11.63-.14,1.45,0,2,.18,1.17-.09,1.42-1,2-.27.17-1.23-.41-2.07.63-1.28,1.58-1.48,5.03-2.93,7.37-1.73-.27-1.85-2.85-2-3,.09-1.65-.13-3.35,0-5,4.38.73,4.52-2.69,0-2,.51-1.56,1.79-.77,2-1,2.11.26,2.25.11,2-2,.19-.26,0-3.97,0-5h2Z"/>
  <path class="cls-5" d="M214.25,93.29c2.31-1.91,2.12,0,3.19,1.35.9,1.13,4.7,5.74,4.81,6.17.05.17-1.16.13-2,2.48-1.39-.51-1.33-1.11-2-2-.27-.36-1.71-2.53-2-3-.75-1.23-1.3-3.61-2-5Z"/>
  <path class="cls-4" d="M212.25,109.29c4.52-.69,4.38,2.73,0,2,.05-.64-.15-1.54,0-2Z"/>
  <path class="cls-4" d="M218.25,101.29h-2v-3c.29.47,1.73,2.64,2,3Z"/>
  <path class="cls-4" d="M216.25,106.29c.25,2.11.11,2.26-2,2,.22-.24-.26-1.74,0-2s1.85.21,2,0Z"/>
  <path class="cls-1" d="M223.25,50.29h1c3.99,0,8.01-.08,12,0h1c2.31.05,4.41.98,5,1-.68.36-.82,1.86-1,2-1.96,1.48-2.38-.85-3,4-.12.93,0,2.03,0,3v5c-1.66-2.31-1.32-1.82-4-2,6.41-5.02-.76-3.9-5-3-.32.07-.69-.08-1,0,1.34-5.77-4.71-8.54-9.41-7.92-.82.11-1.27.82-1.59.92-1.3.38-3.17-.49-3.87,1.63-.16.49-.27,9.5-.13,10.37h-1c.11-.07-.06-.65,0-1,.27-1.47-.17-3.43,0-5.01-3,.42-7.25-.58-10.01,0,.7-4.39-.95-6.6-5-8,8.75-1.02,16.97-1.01,26-1h0Z"/>
  <path class="cls-1" d="M229.25,63.29c1.66.08,3.35-.11,5,0-.35.27-.68.89-1,1-1.93.7-4.45,1.18-6.01-.5-.07-1.05,1.79-.24,2.01-.5Z"/>
  <path class="cls-7" d="M217.25,53.29l-1.99,2.99c1.22-.43,6.62,2.75,6.86,3.19.66,1.18-2.51,7.24,2.13,6.82-.82,1.2-5.95,6.96-6.5,6.96-1.79,0-4.24-6.33-4.5-7.96-.14-.87-.04-9.88.13-10.37.7-2.12,2.57-1.25,3.87-1.63Z"/>
  <path class="cls-4" d="M253.25,67.29c.23,5.46.39,2.94,2,4,2.24,1.48,1.23,5.98,3,8-.01.66.05,1.34,0,2-.09,1.32.06,2.67,0,4-.17-.18-1.44.05-2.02-.47-1.39-1.26-.13-3.67-1.97-3.52l-.02,11.99c-3.66.93-1.15-4.75-2.99-5.99,1.7-1.75,1.4-2.29-1-2,.14-.85.03-2.07,0-3l2.34-.94c-3.57-1.17,1.1-10.18-3.34-11.06l.02-1.34c2.93-.7.82-2.53.97-2.65,1.12-.83,2.56.89,3.01.99h0Z"/>
  <path class="cls-11" d="M217.25,53.29c.32-.09.77-.81,1.59-.92,4.7-.62,10.75,2.15,9.41,7.92-2.73.68-2.08,3.2-4,6-4.64.42-1.48-5.64-2.13-6.82-.24-.44-5.64-3.62-6.86-3.19l1.99-2.99Z"/>
  <path class="cls-11" d="M249.25,113.29l1,1c-.06.65,0,1.34,0,2-3.03-.56-1.93,1.53-2,3.46-.18,4.73.38,7.35,1,11.54.21,1.42.96,2.67,1,3,.08.64.15,2.59,0,3-.27.73-2.45.56-2.02,2.5.17.75,1.74.27,2.03,1.19.31,1.01-.16,2.32,0,3.31h-2c-.37-3.38-2.73-8-2.56-10.52.42-6.28,1.29-12.83,1.56-19.48.01-.33-.03-.67,0-1h2-.01Z"/>
  <path class="cls-5" d="M202.25,59.29c2.76-.58,7,.42,10.01,0-.17,1.58.26,3.53,0,5.01-1.71.37-8.61-2.44-9-2-.46.53,1.2,3.89-2,3-.42-.31-2.69.77-2-2,.23-.26,1.55-3.69,3-4h0Z"/>
  <path class="cls-5" d="M249.25,70.29c4.44.87-.23,9.89,3.34,11.06l-2.34.94c-.02-.59-.73-3.94-1.5-3.98-1.76-.09-2.19,2.86-3.48,2.97-1.98-1.92-1.4-2.5-1.02-3.99,6.41-2.1.98-4.17.99-4.5.02-.84.89-.24,1.6-.88.55-.5.34-1.57.41-1.62.12-.08,1.6-.08,2,0Z"/>
  <path class="cls-12" d="M239.25,68.29c.62.14,1.52.99,2,1,1.46.02,1.44-.7,2-1,.63.1,1.46-.15,2,0,.99.27,1.64,1.06,2,2-.07.05.14,1.12-.41,1.62-.7.64-1.58.04-1.6.88,0,.33,5.43,2.4-.99,4.5,1.48-5.75-.21-1.57-3.41-3.91-.29-.21-2.91-4.71-3.59-5.09.64.09,1.43-.13,2,0h0ZM242.75,71.29v1c.65-.33.65-.67,0-1Z"/>
  <path class="cls-11" d="M236.25,112.29c.2-2.2.87-10.02,3.99-7.01.17.17.08,3.35.68,4.79.51,1.23,2,1.2,2.12,1.4.33.59-.86,1.61-.79,1.81l-.55.97-5.45-1.97h0Z"/>
  <path class="cls-5" d="M229.25,60.29c4.24-.9,11.41-2.02,5,3-1.65-.11-3.34.08-5,0,.24-.27-.16-2.25,0-3Z"/>
  <path class="cls-5" d="M234.25,63.29c2.68.18,2.34-.31,4,2,.73,1.02,1.31,1.52,1,3-.57-.13-1.36.09-2,0-.58-.33-2.98.26-4.01,0v-4.01c.32-.11.66-.73,1.01-1h0Z"/>
  <path class="cls-7" d="M252.25,109.29l-1,3c-.13.1-.97.94-1,1h-2c.28-.39.67-.67,1-1s1.49-.16,1-2v-1c.34-.17.64-.73,1-1h1s-.04.83,0,1Z"/>
  <path class="cls-11" d="M252.25,105.29c.05.09,1.78-.25,2.03.52,1.03,3.15-1.54,2.16-2.03,2.48h-1v-1l1-2Z"/>
  <path class="cls-5" d="M250.25,85.29c2.4-.29,2.7.25,1,2-.34-.23-1.77.22-1.99,0-.64-.65.98-1.88.99-1.99h0Z"/>
  <path class="cls-11" d="M252.25,109.29c.09.37,1.82,2,1,3-.22.26-1.7-.22-2,0l1-3Z"/>
  <path class="cls-4" d="M252.25,105.29l-1,2v-5c1.94-.47.51,2.14,1,3Z"/>
  <rect class="cls-11" x="253.26" y="97.29" width=".98" height="4.99"/>
  <path class="cls-2" d="M249.25,112.29c-.33.33-.72.61-1,1h-1c.07-.65-.05-1.34,0-2l1.99,1h.01Z"/>
  <path class="cls-5" d="M212.25,65.29v2l-2-1.51c-.08-1.04,1.6-.25,2-.5h0Z"/>
  <path class="cls-12" d="M250.25,109.29v1c-4.46-.57-.8-.6,0-1Z"/>
  <path class="cls-2" d="M250.25,114.29l-1-1h1c-.1.21.03.64,0,1Z"/>
  <path class="cls-1" d="M259.25,51.29c-.87,1.28-1.62,6.15-2,8-.63,3.07-.75,4.94-1,8-.94-.13-2.16.2-3,0-.45-.1-1.89-1.83-3.01-.99-.15.12,1.95,1.94-.97,2.65l-.02,1.34c-.4-.08-1.88-.08-2,0-.36-.94-1.01-1.73-2-2v-1c.06-1.83,1.11-4.47,2-6,.21-.35.68-.68,1-1,.39-.22.98-.58,1-1,.11-2.22-3.88-5.17-4-8,4.59.16,9.01-1.39,14,0Z"/>
  <path class="cls-6" d="M261.25,50.29c-.33.07-1.92.88-2,1-4.99-1.39-9.41.16-14,0-1-.03-2,.03-3,0-.59-.02-2.69-.95-5-1,.11-.48.53-.93,1-1,4.68-.68,12.42-.07,17.51-.02,1.69.02,4.45-.64,5.49,1.02Z"/>
  <path class="cls-2" d="M258.25,79.29c-1.77-2.02-.76-6.52-3-8,.87-1.23.88-2.57,1-4,.25-3.06.37-4.93,1-8l1.75,18.75c.01,1.69-.75,1.17-.75,1.25Z"/>
  <path class="cls-10" d="M147.25,13.29c6.47,4.23-.12,4.78-2.7,8.28-.5.68-.18,1.54-.3,1.72-.66.05-1.34-.04-2,0,.84-1.59,2.85-7.14,3-9,1.16.18,1.42-.12,2-1Z"/>
  <path class="cls-10" d="M132.25,9.29l-.03,1.33c-3.13,1.17-1.83,3.77-1.97,6.67-2.83-.33-5.39-.06-6-4-.19-1.23.13-2.71,0-4,2.65-.09,5.34,0,8,0Z"/>
  <path class="cls-8" d="M124.25,9.29c.13,1.29-.19,2.77,0,4-2.32.28-5.17-.44-7.36-.02-.82.16-.56,3.85-2.66,1.5,1.69-7.35,3.84-5.28,10.02-5.48Z"/>
  <path class="cls-10" d="M232.25,33.29v6.01c1,1.04,24.56-1.54,28,.99h-30c-.85-2.84,1.49-5.26,2-7Z"/>
  <path class="cls-3" d="M116.25,40.29c-6.47.44-26.57,1.12-32,0-.95-.2-.73-.48-1-1l33,1Z"/>
  <path class="cls-1" d="M222.25,49.29c-8.62-1.25-24.63-.2-34,0v-1c7.97-.24,16.04.33,24,0,4.07-.17,5.93-.04,10-1v2Z"/>
  <path class="cls-12" d="M212.25,48.29c-7.96.33-16.03-.24-24,0v-1c7.8.1,16.55-.91,24,1Z"/>
  <path class="cls-3" d="M102.25,183.29c.03,2.5.8,6.04-2,7-.14-.12-.64.06-1,0-1.19-.21-2.73.15-4,0-.41-.6-.63-1.37-1-2,1.28-.68,1.98-4.38,5.98-1.99l2.02-3.01Z"/>
  <path class="cls-1" d="M99.25,190.29c-.63,3.12.52,6.56,1,10l-.99,1c.27-4.92-1.52-7.35-4.01-11,1.27.15,2.81-.21,4,0Z"/>
  <path class="cls-1" d="M92.25,188.29l.51,2.98c-1.64-1.5-4.22-.14-3.51-2.98.5.03,1.84-.04,3,0Z"/>
  <path class="cls-15" d="M104.25,189.29c.22.78-.31,2.09.46,3.03,1.15,1.41,4.39.09,3.54,2.97-2.02-1.3-7.43-2.99-7.77-3.27-.51-.42-.12-1.64-.23-1.73,2.8-.96,2.03-4.5,2-7v-2h1c-.04,3.41.06,4.72,1,8Z"/>
  <path class="cls-5" d="M135.25,202.29c.42.47.54,2.9,1.98,3.51l-2.97-1.51c-1.05,7.8-1.87,4.14-6.64,4.13-2.32,0-5.03.6-7.37.86.05-2.66-.38-5.44-1-8l1-1c4.29,0,12.18-1.18,15,2h0Z"/>
  <path class="cls-4" d="M115.25,197.29h-4c-1.01-1.28-1.92-1.31-3-2,.85-2.89-2.39-1.56-3.54-2.97-.77-.94-.24-2.25-.46-3.03,2.77-.22,8.51,3.55,10.07,5.47.82,1.01.66,2.12.93,2.53Z"/>
  <path class="cls-14" d="M142.24,228.29c-.42.45-2.72.3-1.93-1.42l2.93-15.57c-.16,2.96.52,15.39-1,17h0Z"/>
  <path class="cls-4" d="M116.25,199.29c.11-4.21,2.04-2.15,3,1h-2c-.14-.36-.83-.66-1-1Z"/>
  <path class="cls-4" d="M119.25,201.29c-.08-.32.09-.7,0-1h1l-1,1Z"/>
  <path class="cls-7" d="M241.25,145.29c-.07.15-.71-.13-1,0-.46.21-1.81-.25-2,0-.35.47.13,9.59.04,11.59-.06,1.29-1.04,2.29-1.04,2.42.18-5.17-.24-10.4-.03-15.57.05-1.28,1.02-2.25,1.03-2.43.47,5.06,1.14-.86,3-3-.05,1.58.34,6.31,0,7h0Z"/>
  <path class="cls-11" d="M241.25,145.29c.34-.69-.05-5.42,0-7l.99-9.99c-.57,5.39,1.28,11.99-.99,16.99Z"/>
  <path class="cls-11" d="M243.25,118.29c.06,3.46.9,4.55-3,4,.35-1.01.51-3.31,1.17-3.85.56-.46,1.52,0,1.83-.15Z"/>
  <rect class="cls-7" x="241.26" y="165.29" width=".98" height="3.99"/>
  <path class="cls-7" d="M242.24,153.28c-.35.68-1.7-.59-.98-1.99.35-.68,1.7.59.98,1.99Z"/>
  <path class="cls-14" d="M242.25,176.29c.06-.32-.08-.69,0-1l.98.5-.98.5Z"/>
  <path class="cls-8" d="M251.25,137.29c2.67,1.18,3.02-1.86,3.69-2,2.42-.52,4.92,1.06,7.31,0v26c-2.78.64-3.05-3.3-4.13-5.16-1.4-2.43-2.46-3.48-3.87-4.84-.86-.83-2.3-11.59-3-14Z"/>
  <path class="cls-7" d="M254.25,151.29l-1.98,1c-1.87-2.99-1.57-5.04-2.02-8-.15-.99.32-2.3,0-3.31-.29-.92-1.86-.45-2.03-1.19-.43-1.94,1.75-1.77,2.02-2.5h1c.7,2.41,2.14,13.17,3,14h.01Z"/>
  <path class="cls-11" d="M197.25,51.29c4.05,1.4,5.7,3.61,5,8-1.45.31-2.77,3.74-3,4-.36.4-1.7.61-2,1-3.59.54-1.28-3.59-2.49-6.02-1.02-2.05-6.43-2.25-3.51-5.98,2.8-.8,3.35-.69,6-1Z"/>
  <path class="cls-14" d="M172.25,62.29c1.93-1.35,9.15-1.58,11.4-1.05,1.21.29.42,1.84.6,2.05-4.08-.3-7.86-.91-12-1Z"/>
  <path class="cls-4" d="M220.25,103.29c.81.3,3.02-.59,3.01.5l-3.02.5v3c-.3-1.83-1.19-.67,0-4h.01Z"/>
  <path class="cls-7" d="M241.25,53.29c.4,2.3,3.16,3.34,3.8,4.71.78,1.68-.97,3.99,2.2,3.29-.89,1.53-1.94,4.17-2,6-.97-.14-1.45.71-2,1s-.54,1.02-2,1c-.32-2.48.07-7.77-3-7v-2c1.5-.14,1.5-2.86,0-3,.62-4.85,1.04-2.52,3-4Z"/>
  <path class="cls-11" d="M245.25,51.29c.12,2.83,4.11,5.78,4,8-.39.28-.67.67-1,1s-.79.65-1,1c-3.17.7-1.42-1.61-2.2-3.29-.64-1.37-3.39-2.41-3.8-4.71.18-.14.32-1.64,1-2,1,.03,2-.03,3,0Z"/>
  <path class="cls-2" d="M238.25,62.29c3.07-.77,2.68,4.52,3,7-.48,0-1.38-.86-2-1,.31-1.48-.27-1.98-1-3v-3Z"/>
  <path class="cls-2" d="M238.25,60.29c0-.97-.12-2.07,0-3,1.5.14,1.5,2.86,0,3Z"/>
  <path class="cls-6" d="M256.25,67.29c-.12,1.43-.13,2.77-1,4-1.61-1.06-1.77,1.46-2-4,.84.2,2.06-.13,3,0Z"/>
  <path class="cls-5" d="M245.25,67.29v1c-.54-.15-1.37.1-2,0,.55-.29,1.03-1.14,2-1Z"/>
  <path class="cls-5" d="M242.75,71.29c.65.33.65.67,0,1v-1Z"/>
  <path class="cls-7" d="M248.25,60.29c.33-.33.61-.72,1-1-.02.42-.61.78-1,1Z"/>
</svg>