<?xml version="1.0" encoding="UTF-8"?>
<svg id="uuid-6e4e2581-a014-46b5-b0c0-5f02964006b3" data-name="uuid-a1f50e40-2152-4fbe-b394-f4c7aa7ccb9f" xmlns="http://www.w3.org/2000/svg" viewBox="0 0 81.59 93.64">
  <defs>
    <style>
      .uuid-d605ce1e-cb65-4e43-988a-58dcaac0a1af {
        fill: #c084fc;
        stroke-width: 0px;
      }
    </style>
  </defs>
  <path class="uuid-d605ce1e-cb65-4e43-988a-58dcaac0a1af" d="M0,70.27V23.47c2.1-1.25,4.18-2.51,6.29-3.74,1.05-.61,2.14-1.17,3.2-1.76,2.23-1.24,4.46-2.5,6.66-3.79,2.66-1.56,5.4-3.02,7.97-4.76,1.19-.8,2.62-1.25,3.83-2.03,2.75-1.76,5.72-3.15,8.43-4.98,1.39-.94,2.94-1.61,4.42-2.41,1.25.75,2.49,1.52,3.76,2.24,2.33,1.32,4.63,2.71,6.95,4.04,2.15,1.24,4.35,2.44,6.51,3.67,2.18,1.23,4.39,2.41,6.5,3.78,1.84,1.2,3.86,2.12,5.78,3.21,2.17,1.25,4.29,2.58,6.47,3.82,1.16.66,2.38,1.23,3.48,1.99.44.3.9.57,1.34.84v46.58c-2.71,1.77-5.64,3.09-8.29,4.92-.94.65-2.05,1.07-3.06,1.63-2.24,1.24-4.47,2.49-6.66,3.79-2.66,1.58-5.4,3.02-7.96,4.77-1.14.78-2.48,1.24-3.68,1.93-2.22,1.27-4.4,2.63-6.62,3.91-1.55.89-3.15,1.71-4.65,2.52-1.8-1.03-3.49-1.95-5.13-2.94-2.74-1.65-5.64-3.05-8.29-4.87-.95-.65-2.05-1.07-3.06-1.63-2.24-1.23-4.47-2.49-6.66-3.79-2.66-1.58-5.4-3.01-7.96-4.76-1.14-.78-2.48-1.25-3.68-1.93-1.98-1.12-3.92-2.31-5.86-3.46h-.03,0ZM64.07,25.75c-.62.41-1.2.83-1.81,1.19-.34.2-.79.24-1.11.47-2.04,1.47-4.3,2.57-6.48,3.79-1.97,1.11-3.92,2.27-5.88,3.39-2.22,1.27-4.48,2.49-6.64,3.88-1.85,1.19-3.87,2.11-5.77,3.21-2.22,1.28-4.38,2.66-6.6,3.95-1.25.72-2.63,1.23-3.84,2.02-2.59,1.69-5.33,3.13-7.97,4.73-2.22,1.35-4.63,2.41-6.84,3.79-2.81,1.75-5.75,3.28-8.5,5.07v7.61c4.78,2.75,9.59,5.51,14.55,8.36v-9.29c1.39-.73,2.79-1.33,4.04-2.16,2.57-1.72,5.36-3.06,7.97-4.73,2.15-1.38,4.44-2.53,6.67-3.77,1.01-.56,2.06-1.06,3.05-1.67,2.04-1.24,4.08-2.47,6.18-3.6,1.17-.63,2.36-1.27,3.47-1.99,2.16-1.39,4.47-2.51,6.64-3.9,1.85-1.19,3.87-2.11,5.77-3.21,2.22-1.28,4.38-2.66,6.6-3.95,1.25-.72,2.65-1.21,3.83-2.02,2.12-1.46,4.43-2.59,6.61-3.94.34-.21.7-.38.98-.53v-7.59c-1.39-.77-2.83-1.42-4.11-2.31-.83-.58-1.76-.9-2.6-1.42-2.03-1.25-4.04-2.53-6.19-3.58-.47-.23-.87-.61-1.31-.91-.08-.05-.17-.09-.25-.13-.14.14-.28.27-.45.45v8.79h-.01ZM2.67,43.18v14.92c.31-.13.52-.19.7-.3,1-.61,1.97-1.26,2.98-1.84,2.12-1.21,4.25-2.38,6.38-3.56,1.22-.67,2.47-1.28,3.66-2.01,2.08-1.28,4.16-2.57,6.33-3.7,1.18-.62,2.33-1.3,3.49-1.98,2.16-1.27,4.29-2.58,6.46-3.82,1.91-1.09,3.93-2.02,5.77-3.21,2.11-1.36,4.35-2.48,6.49-3.79,1.28-.79,2.73-1.31,3.96-2.15,2.99-2.06,6.27-3.59,9.33-5.52,1.13-.71,2.34-1.29,3.51-1.92v-9.25c-4.15-2.4-8.32-4.81-12.67-7.33v8.63c-1.2.63-2.34,1.1-3.34,1.78-2.69,1.86-5.67,3.23-8.42,4.99-1.21.77-2.63,1.23-3.83,2.03-2.19,1.46-4.52,2.66-6.76,4.04-.98.61-2.1.99-3.06,1.64-2.04,1.37-4.21,2.48-6.35,3.67-1.98,1.1-3.93,2.26-5.88,3.39-2.52,1.46-5.07,2.87-7.57,4.37-.49.29-.82.69-1.2.93h.02ZM32.18,77.62c.63-.45,1.17-.95,1.8-1.25,2.31-1.11,4.44-2.52,6.68-3.76,1.01-.56,2.11-.99,3.06-1.64,1.83-1.26,3.8-2.29,5.72-3.38,2.16-1.23,4.35-2.44,6.51-3.67,2.32-1.32,4.67-2.63,6.95-4.03.99-.61,2.05-1.1,3.02-1.73,2.16-1.39,4.45-2.53,6.64-3.87,1.18-.72,2.48-1.25,3.68-1.95.97-.57,1.86-1.26,2.77-1.88v-14.67s-.06-.1-.1-.14-.1-.06-.12-.07c-1.04.55-2.09,1.04-3.09,1.63-1.96,1.16-3.87,2.4-5.83,3.55-1.25.73-2.64,1.22-3.83,2.02-2.57,1.73-5.37,3.06-7.97,4.74-2.14,1.38-4.44,2.53-6.67,3.77-1.01.56-2.07,1.06-3.05,1.66-2.03,1.25-4.08,2.47-6.18,3.6-1.17.63-2.36,1.28-3.47,1.99-2.02,1.28-4.13,2.4-6.21,3.58-2.02,1.14-4.03,2.31-6.03,3.47-2.21,1.28-4.51,2.42-6.59,3.89v9.33c1.39.76,2.77,1.5,4.13,2.27,1.37.78,2.7,1.6,4.06,2.4,1.33.77,2.66,1.53,4.14,2.38v-8.22s-.02-.02-.02-.02ZM34.88,79.11v8.27c1.87,1.09,3.63,2.11,5.49,3.19h.84c1.04-.66,1.96-1.3,2.92-1.86,2.21-1.27,4.45-2.51,6.68-3.75,1.01-.56,2.09-1.02,3.05-1.67,2.66-1.8,5.51-3.27,8.29-4.85,2.16-1.23,4.36-2.43,6.51-3.67,2.32-1.33,4.61-2.72,6.95-4.04,1.12-.63,2.22-1.29,3.28-1.91v-15.12c-1.37.74-2.63,1.34-3.8,2.08-2.47,1.54-5.02,2.96-7.55,4.4-2.87,1.64-5.71,3.35-8.61,4.94-1.02.55-2.11.98-3.07,1.62-2.04,1.37-4.24,2.43-6.34,3.69-1.94,1.17-3.97,2.2-5.9,3.36-2.5,1.5-5.07,2.88-7.56,4.38-.48.29-.82.69-1.2.93h.02ZM2.62,40.13c.88-.56,1.59-1.07,2.35-1.49,1.27-.7,2.65-1.21,3.84-2.02,2.57-1.74,5.31-3.18,7.97-4.76,2.19-1.3,4.42-2.55,6.66-3.79,1.06-.59,2.15-1.14,3.2-1.75,1.96-1.15,3.89-2.35,5.86-3.48,1.2-.69,2.53-1.18,3.67-1.96,2.17-1.49,4.57-2.58,6.77-4.02,1.12-.73,2.33-1.32,3.44-1.94V6.2c-1.94-1.12-3.8-2.2-5.62-3.25-.28.17-.47.31-.67.42-1.53.83-3.07,1.64-4.58,2.5-1.97,1.13-3.89,2.35-5.86,3.48-1.2.69-2.54,1.18-3.67,1.96-2.55,1.76-5.34,3.11-7.98,4.73-2.17,1.33-4.41,2.57-6.65,3.79-1.02.55-2.07,1.05-3.06,1.65-1.9,1.13-3.77,2.3-5.66,3.46v15.18h-.01Z"/>
</svg>