<svg id="uuid-0ec0a9cd-29f7-495d-bb3f-d4ee2488c3ba" data-name="uuid-076b576c-747a-41ed-a22d-532e0db9a693" xmlns="http://www.w3.org/2000/svg" viewBox="0 0 81.37 93.34">
  <path d="M40.2,0h.96c.88.56,1.74,1.14,2.64,1.67,1.75,1.02,3.52,2.01,5.28,3.02,2.67,1.53,5.34,3.08,8.01,4.61,1.62.93,3.26,1.84,4.88,2.77,2.13,1.23,4.25,2.47,6.37,3.7,1.08.62,2.17,1.22,3.25,1.85,1.38.8,2.75,1.64,4.13,2.43,1.88,1.08,3.78,2.14,5.57,3.16.04.27.06.35.06.42,0,15.23,0,30.47.02,45.7,0,.63-.21,1.01-.78,1.31-1.52.8-3.07,1.57-4.49,2.52-3.54,2.37-7.42,4.15-11.07,6.32-1.74,1.04-3.52,2.02-5.26,3.05-2.35,1.39-4.58,2.97-7.07,4.13-.91.43-1.76,1-2.64,1.5-2.84,1.63-5.68,3.26-8.52,4.9-.73.42-1.39.34-2.09-.09-1.76-1.08-3.54-2.13-5.34-3.15-1.93-1.1-3.95-2.06-5.8-3.27-3.2-2.1-6.71-3.66-9.97-5.65-1.77-1.07-3.55-2.12-5.35-3.14-2.3-1.31-4.46-2.87-6.88-4-.95-.44-1.82-1.05-2.74-1.56-1.12-.62-2.25-1.21-3.37-1.82V23.22c.62-.4,1.23-.82,1.87-1.18,4.16-2.37,8.33-4.72,12.49-7.08,1.89-1.08,3.81-2.12,5.65-3.28,3.1-1.94,6.33-3.66,9.51-5.47,1.49-.85,3.01-1.65,4.47-2.54,1.83-1.11,3.56-2.38,5.55-3.22.24-.1.43-.3.64-.45h.02ZM32.06,77.18c.54-.39.99-.77,1.5-1.06,2-1.14,4.02-2.24,6.02-3.37,3.67-2.07,7.33-4.15,11-6.23,2.81-1.6,5.63-3.2,8.43-4.82,1.96-1.13,3.9-2.3,5.86-3.42,3.08-1.76,6.19-3.47,9.27-5.24,1.55-.89,3.06-1.85,4.53-2.74v-14.74c-.9.48-1.7.86-2.46,1.32-1.98,1.18-3.91,2.42-5.9,3.57-2.67,1.55-5.38,3.01-8.04,4.56-.41.24-.81.66-.98,1.09-.55,1.37-.98,2.79-1.48,4.18-1.3,3.66-2.6,7.31-3.91,10.96h-8.98c-3.46-9.75-6.91-19.5-10.4-29.34h7.61c.23.55.46,1.1.74,1.76,5.62-3.28,11.1-6.48,16.59-9.68v-8.85c-4.09-2.36-8.17-4.71-12.4-7.16v8.37c-1.1.6-2.1,1.12-3.08,1.7-3.16,1.86-6.3,3.76-9.47,5.59-2.06,1.19-4.17,2.28-6.24,3.46-3.83,2.18-7.64,4.4-11.46,6.6-.85.49-1.72.92-2.56,1.41-2.26,1.3-4.52,2.62-6.77,3.94-1.85,1.09-3.67,2.23-5.54,3.28-.79.44-1.09.99-1.08,1.89.04,4.03.02,8.06.02,12.09v1.32c.28-.11.48-.15.65-.25,2.12-1.25,4.21-2.53,6.34-3.75,3.08-1.77,6.18-3.5,9.25-5.27.31-.18.61-.51.73-.84,1.36-3.64,2.68-7.3,4.01-10.96.54-1.49,1.06-2.98,1.57-4.43h8.3c3.53,9.77,7.06,19.52,10.61,29.36h-7.5c-.21-.46-.42-.91-.66-1.43-1.85,1.01-3.7,2.01-5.54,3.04-2.04,1.15-4.06,2.32-6.08,3.49-1.35.78-2.69,1.59-4.03,2.38-.49.29-.69.68-.68,1.27.03,1.95.01,3.91.01,5.86v2.24c4.1,2.37,8.07,4.66,12.2,7.04v-8.19h0ZM2.66,24.94v14.77c.96-.57,1.85-1.11,2.76-1.63,2.91-1.66,5.83-3.31,8.74-4.97,2.4-1.37,4.78-2.78,7.19-4.15,1.76-1,3.58-1.91,5.34-2.92,3.68-2.12,7.33-4.29,11-6.43,2.82-1.65,5.65-3.28,8.47-4.9V6.32c-1.85-1.08-3.67-2.13-5.53-3.22C27.97,10.38,15.31,17.66,2.66,24.94ZM34.96,87.05c1.71.97,3.39,1.88,5.01,2.89.58.36.91.29,1.46-.04,3.33-1.96,6.69-3.86,10.04-5.77.71-.41,1.43-.79,2.14-1.2,3.37-1.95,6.74-3.92,10.12-5.86,2.03-1.17,4.09-2.28,6.12-3.45,2.86-1.67,5.7-3.37,8.6-5.09v-14.59c-.28.12-.53.21-.76.34-1.66.94-3.32,1.89-4.98,2.84-1.83,1.04-3.67,2.07-5.49,3.12-1.86,1.07-3.7,2.17-5.57,3.21-1.56.87-3.17,1.67-4.73,2.55-1.87,1.05-3.72,2.14-5.57,3.21-3.1,1.8-6.21,3.6-9.31,5.41-2.38,1.39-4.77,2.78-7.09,4.13v8.3h.01ZM64.15,25.71c-6.09,3.82-12.47,7.01-18.52,10.76,1.93,5.87,3.8,11.58,5.68,17.29h.23c2.39-7.3,4.79-14.6,7.17-21.84h7.6c-1.1,3.09-2.16,6.08-3.29,9.27,5.38-3.08,10.53-6.04,15.64-8.97v-7.36c-4.98-2.43-9.5-5.61-14.51-8.18v9.02h0ZM2.63,68.45c4.75,2.73,9.46,5.45,14.32,8.24v-9c1.09-.59,2.1-1.11,3.07-1.67,1.42-.82,2.81-1.68,4.22-2.51,1.28-.75,2.57-1.47,3.85-2.21,1.65-.96,3.29-1.93,4.94-2.89.57-.33,1.17-.62,1.72-.99.19-.13.42-.5.36-.64-.1-.23-.41-.41-.66-.51-.21-.08-.47-.02-.71-.02h-9.7c-.61,1.82-1.18,3.52-1.74,5.19h-7.48c1.08-3.02,2.13-5.94,3.26-9.08-.51.27-.75.39-.99.52-2.99,1.68-5.98,3.35-8.96,5.06-1.62.93-3.21,1.91-4.82,2.87-.38.23-.69.49-.69,1.02.02,2.19,0,4.38,0,6.62h0ZM29.55,39.97c-1.2,3.63-2.37,7.14-3.54,10.68,2.28.23,6.18.15,7.05-.14-1.16-3.47-2.32-6.95-3.52-10.54h.01Z" style="fill: #84cc16; stroke-width: 0px;"/>
</svg>